<?xml version="1.0" encoding="UTF-8"?>
<svg version="1.1" xmlns="http://www.w3.org/2000/svg" width="836" height="375">
<path d="M0 0 C3.26008643 3.16952847 6.22237877 6.39937989 9 10 C7.60120336 13.13859345 5.91835015 15.32492489 3.5625 17.8125 C-2.40070891 24.48236777 -4.33685294 31.67352949 -4.21875 40.53125 C-3.42660258 49.47119948 0.16001799 56.47221028 6.625 62.625 C15.29222645 69.81051311 23.93256965 70.90741028 35 70 C35.66 69.67 36.32 69.34 37 69 C36.7834375 68.0821875 36.566875 67.164375 36.34375 66.21875 C33.42675589 53.36236853 32.58808115 41.67170256 38.8125 29.4375 C43.35288562 24.37821317 47.18157367 21.17559075 54 20 C59.69418466 19.90997337 64.56348981 21.38386639 69 25 C74.77977757 31.55638851 75.44398791 37.46777333 75.27734375 46.06640625 C74.5332201 56.62038538 69.63406473 64.56741634 62.125 71.75 C59.54225098 73.96886633 59.54225098 73.96886633 60 78 C66.553598 85.3788659 76.91963489 89.35236767 86.62890625 90.02734375 C96.41302976 89.91451201 106.56443725 87.46078578 113.68359375 80.30859375 C115 79 115 79 117 79 C117.41958984 78.12214844 117.41958984 78.12214844 117.84765625 77.2265625 C118.92259959 75.14955333 120.12032324 73.30357656 121.4375 71.375 C126.69730559 62.92507564 128.24795565 53.85884962 127 44 C125.33346828 38.29058576 123.30568771 32.95853156 120 28 C120 27.01 120 26.02 120 25 C121.828125 23.359375 121.828125 23.359375 124.25 21.75 C125.03890625 21.20859375 125.8278125 20.6671875 126.640625 20.109375 C129 19 129 19 131.10546875 19.02734375 C136.08405528 21.58336034 138.20740986 28.86089055 140.05078125 33.8359375 C144.11182289 47.88598677 143.07321759 62.74237101 136.57421875 75.8828125 C133.83422856 80.62646476 130.7691427 85.02146048 127 89 C126.34 89 125.68 89 125 89 C124.67 89.99 124.34 90.98 124 92 C109.26738053 103.33885534 95.08608032 105.21661344 77 104 C64.92473721 101.89885364 55.03162967 94.96839847 47.36328125 85.625 C44.39747424 83.58570129 42.66270768 83.98791536 39.21459961 84.61914062 C24.98299009 87.06664485 11.57570259 85.09098948 -0.39453125 77.00390625 C-9.42264258 70.06024641 -16.49760788 59.61357294 -18.75 48.3046875 C-20.34908163 33.56315371 -18.23853667 20.81673295 -9 9 C-8.55269531 8.41347656 -8.10539062 7.82695312 -7.64453125 7.22265625 C-5.37069171 4.36111665 -3.04282919 2.0285528 0 0 Z M51 37 C48.94931302 41.67528636 48.69399272 46.09367967 48.75 51.125 C48.74226563 51.82753906 48.73453125 52.53007812 48.7265625 53.25390625 C48.74069977 56.99321394 48.92872104 59.82732667 51 63 C57.17460028 56.63931588 60.96561929 51.25997227 61.4375 42.25 C61.33501491 38.95339622 61.13395699 38.17716892 59.0625 35.4375 C55.62136188 33.03913101 54.2897017 34.5929012 51 37 Z " fill="#2D31F9" transform="translate(51,140)"/>
<path d="M0 0 C1.76953125 1.63671875 1.76953125 1.63671875 3 3 C3.33 1.02 3.66 -0.96 4 -3 C8.95 -3 13.9 -3 19 -3 C19.09073061 6.19764099 19.16396213 15.39497988 19.20724869 24.59296894 C19.22803457 28.86496555 19.25618527 33.13663746 19.30175781 37.40844727 C19.34553989 41.53874546 19.3692046 45.66873331 19.37950897 49.79924583 C19.38684278 51.36716782 19.40116247 52.93507476 19.42292023 54.50286293 C19.57353522 65.81591147 19.01205014 76.85562209 10.7578125 85.50390625 C3.54967253 91.63883427 -5.31610319 94.55190589 -14.76953125 94.25 C-24.47445296 93.16223294 -33.38349624 90.45782902 -39.875 82.875 C-43.19712213 78.38036417 -44.48170696 75.59756486 -45 70 C-44 69 -44 69 -40.83984375 68.90234375 C-39.55207031 68.91394531 -38.26429688 68.92554688 -36.9375 68.9375 C-35.00197266 68.95103516 -35.00197266 68.95103516 -33.02734375 68.96484375 C-32.02832031 68.97644531 -31.02929688 68.98804688 -30 69 C-29.566875 70.0725 -29.13375 71.145 -28.6875 72.25 C-26.12580002 76.73525406 -22.6002607 77.92917489 -17.8125 79.40625 C-12.40668631 80.54747733 -8.15751155 79.77156626 -3.1875 77.3125 C0.55378995 74.59823082 1.6789868 73.42927956 3 69 C3.22792453 64.65389356 3.17414679 60.34721988 3 56 C2.33613281 56.42152344 1.67226563 56.84304687 0.98828125 57.27734375 C0.10527344 57.82519531 -0.77773438 58.37304688 -1.6875 58.9375 C-2.55761719 59.48277344 -3.42773438 60.02804688 -4.32421875 60.58984375 C-10.38385039 63.78331386 -17.81473406 63.91217335 -24.4375 62.46875 C-32.8724444 59.84707809 -38.86528801 55.14959897 -44 48 C-48.774523 38.72874442 -49.36820675 27.32056816 -46.8125 17.29296875 C-43.60721497 8.24728456 -38.39422136 2.65582656 -30.203125 -2.02734375 C-20.82659792 -6.37500695 -8.7769523 -5.15581285 0 0 Z M-26.8125 12.625 C-31.14019227 17.32363732 -33.21191669 22.62243161 -33.5 29 C-33.22632113 34.86585052 -31.54725888 40.20755042 -27.5390625 44.6015625 C-22.58350733 48.90308501 -18.67998203 50.41886018 -12.2421875 50.25 C-6.43642971 49.60266812 -2.69104225 46.28958964 1 42 C5.1193322 36.31816248 4.73156465 29.72381891 4 23 C2.34564295 17.14899711 -0.86660815 13.2931193 -6 10 C-13.79790132 6.79256135 -19.74700284 8.54271275 -26.8125 12.625 Z " fill="#2D31F9" transform="translate(327,176)"/>
<path d="M0 0 C2.21624598 1.79208407 4.24359768 3.74359768 6.2578125 5.7578125 C7.3096875 4.6440625 7.3096875 4.6440625 8.3828125 3.5078125 C15.9935843 -3.77205618 21.56176435 -4.55898593 31.77734375 -4.453125 C38.68030393 -4.03476378 43.62097851 -1.71018658 48.71875 2.9453125 C53.23337043 8.26202285 55.39114878 15.35678603 55.37133789 22.25097656 C55.37122459 23.57189301 55.37122459 23.57189301 55.37110901 24.91949463 C55.36594772 25.86129578 55.36078644 26.80309692 55.35546875 27.7734375 C55.3540538 28.74440369 55.35263885 29.71536987 55.35118103 30.71575928 C55.34558913 33.81314185 55.33303809 36.91045182 55.3203125 40.0078125 C55.31529645 42.10937396 55.31073373 44.21093654 55.30664062 46.3125 C55.29562235 51.46096542 55.27836324 56.60937666 55.2578125 61.7578125 C50.3078125 61.7578125 45.3578125 61.7578125 40.2578125 61.7578125 C40.2484668 60.49187256 40.23912109 59.22593262 40.22949219 57.92163086 C40.18948255 53.2043193 40.12369304 48.48765238 40.05029297 43.77075195 C40.02214693 41.73307607 40.00090084 39.6952923 39.98681641 37.6574707 C39.96529872 34.72030661 39.91860302 31.78443097 39.8671875 28.84765625 C39.86595886 27.94321274 39.86473022 27.03876923 39.86346436 26.10691833 C39.72754689 20.1765645 38.69847021 16.62755517 35.2578125 11.7578125 C31.11779478 8.90017121 26.40292667 8.41078669 21.5078125 9.1953125 C16.80462013 10.50266842 14.92487406 12.75722016 12.2578125 16.7578125 C11.1162503 19.0409369 11.10446878 20.39260555 11.05249023 22.93212891 C11.03254501 23.79287018 11.01259979 24.65361145 10.99205017 25.54043579 C10.97533768 26.47068573 10.95862518 27.40093567 10.94140625 28.359375 C10.92062515 29.31097504 10.89984406 30.26257507 10.87843323 31.24301147 C10.81293117 34.28953682 10.7540497 37.33614993 10.6953125 40.3828125 C10.65212791 42.44532166 10.60851364 44.50782187 10.56445312 46.5703125 C10.4572491 51.63272204 10.35598348 56.69522005 10.2578125 61.7578125 C5.3078125 61.7578125 0.3578125 61.7578125 -4.7421875 61.7578125 C-4.7515332 60.49187256 -4.76087891 59.22593262 -4.77050781 57.92163086 C-4.81051745 53.2043193 -4.87630696 48.48765238 -4.94970703 43.77075195 C-4.97785307 41.73307607 -4.99909916 39.6952923 -5.01318359 37.6574707 C-5.03470128 34.72030661 -5.08139698 31.78443097 -5.1328125 28.84765625 C-5.13404114 27.94321274 -5.13526978 27.03876923 -5.13653564 26.10691833 C-5.27245311 20.1765645 -6.30152979 16.62755517 -9.7421875 11.7578125 C-13.90331493 8.88560026 -18.58325492 8.41370556 -23.4921875 9.2578125 C-27.73094014 10.49319067 -30.15497852 12.07299971 -32.7421875 15.7578125 C-34.63531987 21.64064338 -35.06332019 27.59309083 -35.15625 33.73046875 C-35.17561615 34.53898788 -35.1949823 35.34750702 -35.2149353 36.18052673 C-35.2740374 38.72701947 -35.32083461 41.27355914 -35.3671875 43.8203125 C-35.40543137 45.56186713 -35.44448667 47.30340414 -35.484375 49.04492188 C-35.57968037 53.28240656 -35.66396232 57.5199795 -35.7421875 61.7578125 C-40.3621875 61.7578125 -44.9821875 61.7578125 -49.7421875 61.7578125 C-49.7421875 40.3078125 -49.7421875 18.8578125 -49.7421875 -3.2421875 C-45.1221875 -3.2421875 -40.5021875 -3.2421875 -35.7421875 -3.2421875 C-35.4121875 -1.5921875 -35.0821875 0.0578125 -34.7421875 1.7578125 C-34.28328125 1.40847656 -33.824375 1.05914062 -33.3515625 0.69921875 C-32.73796875 0.24417969 -32.124375 -0.21085938 -31.4921875 -0.6796875 C-30.88890625 -1.13214844 -30.285625 -1.58460938 -29.6640625 -2.05078125 C-21.47308725 -7.12851997 -7.60760708 -5.42425796 0 0 Z " fill="#2C30FA" transform="translate(410.7421875,176.2421875)"/>
<path d="M0 0 C3 2.1875 3 2.1875 5 4 C5.33 2.02 5.66 0.04 6 -2 C10.95 -2 15.9 -2 21 -2 C21 19.45 21 40.9 21 63 C16.05 63 11.1 63 6 63 C5.505 60.03 5.505 60.03 5 57 C4.33613281 57.42152344 3.67226562 57.84304687 2.98828125 58.27734375 C2.10527344 58.82519531 1.22226563 59.37304688 0.3125 59.9375 C-0.55761719 60.48277344 -1.42773438 61.02804688 -2.32421875 61.58984375 C-9.16797303 65.19655221 -18.18862384 65.01402318 -25.5625 63.0625 C-34.28054044 59.71301947 -40.34682401 52.66456834 -44.16015625 44.359375 C-47.6423775 34.57676275 -47.36088747 22.44584683 -43 13 C-39.09263977 6.20776632 -33.49646886 0.8451896 -26.2109375 -2.14453125 C-17.60798981 -4.43655746 -7.93572404 -4.11481987 0 0 Z M-25.375 14.25 C-30.26090349 19.36856556 -31.1939857 23.46551924 -31.5 30.375 C-31.34141583 36.63907474 -30.0210143 41.15174578 -26 46 C-21.26282645 50.25161326 -16.4632204 51.31720538 -10.2734375 51.20703125 C-5.17939721 50.74314098 -2.09502231 48.33075321 1.25 44.6875 C5.8182483 38.95925148 6.78982569 33.16918699 6 26 C4.45182282 19.69428564 1.79610584 14.70197747 -3.875 11.25 C-11.80233435 8.07906626 -18.50055991 9.08561963 -25.375 14.25 Z " fill="#2D31F9" transform="translate(248,175)"/>
<path d="M0 0 C6.08709661 4.92647373 9.24561033 11.97805164 10.75 19.5 C10.75 23.46 10.75 27.42 10.75 31.5 C-6.74 31.5 -24.23 31.5 -42.25 31.5 C-38.36258638 43.49891964 -38.36258638 43.49891964 -29.25 50.5 C-22.96579813 52.42017279 -15.82335362 52.60929493 -9.8125 49.8125 C-4.98450303 47.01838314 -2.71970341 43.43940683 -0.25 38.5 C3.05 38.5 6.35 38.5 9.75 38.5 C7.48840837 47.0142273 3.78796473 53.31883507 -3.9375 57.9375 C-12.51573473 61.98383714 -23.78537883 62.05117091 -32.85546875 59.4765625 C-41.49154824 55.5142548 -47.04318728 49.31776803 -50.65454102 40.5456543 C-51.84126045 36.46876945 -51.72061699 32.33988955 -51.6875 28.125 C-51.70748047 27.23039062 -51.72746094 26.33578125 -51.74804688 25.4140625 C-51.74139237 16.25746651 -48.35685817 8.33896689 -42.25 1.5 C-30.38935481 -8.20416424 -12.67812501 -8.29230861 0 0 Z M-35.0625 7.8125 C-39.63492787 13.43005424 -41.17988078 16.00916548 -42.25 23.5 C-28.06 23.5 -13.87 23.5 0.75 23.5 C0.75 16.81453343 -0.31103326 13.71672912 -4.25 8.5 C-8.94743323 4.00449263 -14.11180458 2.66861809 -20.50390625 2.3671875 C-26.27333262 2.64622092 -30.6022431 4.14517766 -35.0625 7.8125 Z " fill="#00009B" transform="translate(631.25,177.5)"/>
<path d="M0 0 C3.3 0 6.6 0 10 0 C10.33 9.24 10.66 18.48 11 28 C13.97 26.02 16.94 24.04 20 22 C27.582994 20.1042515 36.99470474 19.54506151 44.26171875 22.90625 C51.28796246 27.32725728 54.72198786 33.13467559 57 41 C57.47874094 44.69850682 57.47117164 48.31478212 57.390625 52.0390625 C57.38496521 53.04593109 57.37930542 54.05279968 57.37347412 55.09017944 C57.35129392 58.26896102 57.3011328 61.44656594 57.25 64.625 C57.22991125 66.7955565 57.21166468 68.96613088 57.1953125 71.13671875 C57.15148944 76.4249244 57.0825911 81.71226353 57 87 C54.03 87 51.06 87 48 87 C47.970271 85.35185303 47.970271 85.35185303 47.93994141 83.67041016 C47.86324237 79.5513817 47.77463017 75.43267729 47.68261719 71.31396484 C47.64459076 69.53929086 47.60969455 67.76454668 47.578125 65.98974609 C47.41431962 52.36649192 47.41431962 52.36649192 45 39 C44.66605443 37.66681988 44.33254468 36.33353025 44 35 C43.34 35 42.68 35 42 35 C42 34.34 42 33.68 42 33 C34.68734438 30.15618948 29.01866427 28.70585388 21.3125 31.1875 C16.93123356 33.58479673 13.9090729 35.90967071 11.88696289 40.55932617 C10.74215454 45.00022464 10.66454723 49.16994486 10.62109375 53.73828125 C10.60409927 54.65965378 10.5871048 55.58102631 10.56959534 56.53031921 C10.51668449 59.45764422 10.47623877 62.38495586 10.4375 65.3125 C10.39359716 68.25782867 10.34698765 71.2030472 10.29469299 74.14823914 C10.26268157 75.97775457 10.23580853 77.80736824 10.21446228 79.63703918 C10.11180337 85.88819663 10.11180337 85.88819663 9 87 C7.1875 87.1328125 7.1875 87.1328125 5 87.125 C4.278125 87.12757813 3.55625 87.13015625 2.8125 87.1328125 C1 87 1 87 0 86 C-0.09512944 83.32212027 -0.12555279 80.67011131 -0.11352539 77.99194336 C-0.11367142 77.15299026 -0.11381744 76.31403717 -0.1139679 75.44966125 C-0.1132685 72.66302956 -0.10547485 69.87646384 -0.09765625 67.08984375 C-0.09579217 65.16313209 -0.09436822 63.23641995 -0.09336853 61.30970764 C-0.08954259 56.22812603 -0.07971166 51.1465728 -0.06866455 46.06500244 C-0.05845206 40.88383366 -0.05387126 35.70266031 -0.04882812 30.52148438 C-0.03808946 20.34764375 -0.02101213 10.17382423 0 0 Z " fill="#00009B" transform="translate(723,151)"/>
<path d="M0 0 C5.39567628 4.52238763 8.60650796 8.20464013 10.265625 15.078125 C10.265625 16.068125 10.265625 17.058125 10.265625 18.078125 C6.965625 18.078125 3.665625 18.078125 0.265625 18.078125 C-0.25 16.86125 -0.765625 15.644375 -1.296875 14.390625 C-3.54929118 9.88579263 -6.29304957 7.39446253 -10.734375 5.078125 C-17.03636968 3.02997673 -23.6217383 3.74420917 -29.734375 6.078125 C-34.92679735 9.5397399 -37.57817554 13.23022178 -39.734375 19.078125 C-40.26008942 22.103911 -40.29713552 25.01331939 -40.234375 28.078125 C-40.24984375 28.83351562 -40.2653125 29.58890625 -40.28125 30.3671875 C-40.23585623 36.97198111 -38.2882681 42.12658626 -33.953125 47.13671875 C-33.3859375 47.59175781 -32.81875 48.04679687 -32.234375 48.515625 C-31.6671875 48.98871094 -31.1 49.46179688 -30.515625 49.94921875 C-25.60369307 53.06226333 -19.32774234 52.54489823 -13.734375 52.078125 C-11.15977991 51.32198266 -9.13514937 50.32852832 -6.734375 49.078125 C-5.744375 48.748125 -4.754375 48.418125 -3.734375 48.078125 C-2.59891938 45.78278242 -2.59891938 45.78278242 -1.734375 43.078125 C-1.06770833 41.41145833 -0.40104167 39.74479167 0.265625 38.078125 C3.565625 38.078125 6.865625 38.078125 10.265625 38.078125 C9.96439277 45.30769842 6.76411751 49.51518657 1.78125 54.58984375 C-6.09010615 61.63597707 -14.12273211 61.78133756 -24.1171875 61.48046875 C-32.4192325 60.94426021 -37.49046542 57.67183856 -43.171875 51.765625 C-46.52732558 47.7066122 -48.28099345 44.12221391 -49.734375 39.078125 C-49.91613281 38.47871094 -50.09789062 37.87929687 -50.28515625 37.26171875 C-52.24137136 27.75281224 -51.26570314 17.39376957 -46.515625 8.8984375 C-42.2167076 2.56947577 -36.46873804 -1.34195218 -29.484375 -4.296875 C-19.31156281 -5.9923437 -8.68707548 -6.10577305 0 0 Z " fill="#00009B" transform="translate(700.734375,176.921875)"/>
<path d="M0 0 C0.95708359 0.00222061 1.91416718 0.00444122 2.9002533 0.00672913 C3.98129837 0.00680466 5.06234344 0.00688019 6.17614746 0.00695801 C7.94018166 0.01469994 7.94018166 0.01469994 9.73985291 0.02259827 C10.93702438 0.02401321 12.13419586 0.02542816 13.36764526 0.02688599 C17.20918732 0.03250472 21.05067208 0.04506041 24.89219666 0.05775452 C27.48920102 0.0627671 30.0862063 0.06733043 32.68321228 0.07142639 C39.06539344 0.08248024 45.44754096 0.0992366 51.82969666 0.12025452 C51.82969666 2.76025452 51.82969666 5.40025452 51.82969666 8.12025452 C44.56969666 8.12025452 37.30969666 8.12025452 29.82969666 8.12025452 C29.83493347 10.35669739 29.84017029 12.59314026 29.8455658 14.89735413 C29.86210247 22.26944729 29.87316819 29.64154126 29.88150883 37.01364803 C29.88673739 41.48531001 29.89383455 45.95695305 29.90513611 50.42860413 C29.91596594 54.74037424 29.92197369 59.0521261 29.9245739 63.36390877 C29.92642797 65.01261749 29.93004826 66.66132517 29.93542671 68.31002617 C29.94263844 70.61129323 29.94368754 72.91248391 29.94322205 75.21376038 C29.94544266 76.52614182 29.94766327 77.83852325 29.94995117 79.19067383 C29.82969666 82.12025452 29.82969666 82.12025452 28.82969666 83.12025452 C25.85969666 83.12025452 22.88969666 83.12025452 19.82969666 83.12025452 C19.82969666 58.37025452 19.82969666 33.62025452 19.82969666 8.12025452 C12.23969666 8.12025452 4.64969666 8.12025452 -3.17030334 8.12025452 C-3.17030334 0.1756636 -3.17030334 0.1756636 0 0 Z " fill="#00009B" transform="translate(521.1703033447266,154.87974548339844)"/>
<path d="M0 0 C4.95 0 9.9 0 15 0 C15 21.45 15 42.9 15 65 C10.05 65 5.1 65 0 65 C0 43.55 0 22.1 0 0 Z " fill="#2D30FA" transform="translate(480,173)"/>
<path d="M0 0 C2.87231794 2.09601579 3.8338544 3.49048682 4.9375 6.875 C5.01606404 10.80320182 4.20625381 12.76416108 2 16 C-0.95053752 17.83411792 -2.59498351 18.02479693 -6.0625 17.8125 C-9.2400199 16.93361152 -10.83069135 16.49068771 -13 14 C-14.05657725 9.63281403 -14.50815925 7.29862921 -12.875 3.125 C-9.08626417 -1.1689006 -5.3844831 -1.60388858 0 0 Z " fill="#2C30F9" transform="translate(492,148)"/>
</svg>
