<?xml version="1.0" encoding="UTF-8"?>
<svg version="1.1" xmlns="http://www.w3.org/2000/svg" width="1850" height="830">
<path d="M0 0 C0 0.66 0 1.32 0 2 C0.66 2.33 1.32 2.66 2 3 C2.66 3.33 3.32 3.66 4 4 C4 4.99 4 5.98 4 7 C4.66 7 5.32 7 6 7 C6 7.99 6 8.98 6 10 C6.66 10 7.32 10 8 10 C9.625 11.375 9.625 11.375 11 13 C11 13.66 11 14.32 11 15 C11.66 15.33 12.32 15.66 13 16 C15 18 15 18 15 21 C15.66 21 16.32 21 17 21 C17 22.65 17 24.3 17 26 C16.01 26.33 15.02 26.66 14 27 C14 27.66 14 28.32 14 29 C13.01 29 12.02 29 11 29 C11 29.66 11 30.32 11 31 C9.35 31.66 7.7 32.32 6 33 C6 33.99 6 34.98 6 36 C5.34 36 4.68 36 4 36 C4 36.66 4 37.32 4 38 C3.34 38 2.68 38 2 38 C1.690625 38.61875 1.38125 39.2375 1.0625 39.875 C0.375 41.25 -0.3125 42.625 -1 44 C-1.66 44 -2.32 44 -3 44 C-3 44.99 -3 45.98 -3 47 C-3.66 47 -4.32 47 -5 47 C-5 48.65 -5 50.3 -5 52 C-5.66 52 -6.32 52 -7 52 C-7 53.65 -7 55.3 -7 57 C-7.66 57 -8.32 57 -9 57 C-9 58.65 -9 60.3 -9 62 C-9.66 62 -10.32 62 -11 62 C-11.09087891 62.95712891 -11.09087891 62.95712891 -11.18359375 63.93359375 C-11.26738281 64.75988281 -11.35117188 65.58617187 -11.4375 66.4375 C-11.51871094 67.26121094 -11.59992188 68.08492188 -11.68359375 68.93359375 C-12 71 -12 71 -13 72 C-13.09946453 73.76859193 -13.13080217 75.54111451 -13.1328125 77.3125 C-13.13410156 78.38757813 -13.13539062 79.46265625 -13.13671875 80.5703125 C-13.13091797 82.26800781 -13.13091797 82.26800781 -13.125 84 C-13.12886719 85.13179688 -13.13273437 86.26359375 -13.13671875 87.4296875 C-13.13478516 89.04230469 -13.13478516 89.04230469 -13.1328125 90.6875 C-13.13112061 92.17830078 -13.13112061 92.17830078 -13.12939453 93.69921875 C-13.2583433 95.96375226 -13.2583433 95.96375226 -12 97 C-11.7746669 99.0279979 -11.55232815 101.05674874 -11.37890625 103.08984375 C-11.13777773 105.2328948 -11.13777773 105.2328948 -9 107 C-8.875 109.625 -8.875 109.625 -9 112 C-8.34 112 -7.68 112 -7 112 C-7 113.65 -7 115.3 -7 117 C-6.34 117 -5.68 117 -5 117 C-5 118.32 -5 119.64 -5 121 C-4.34 121 -3.68 121 -3 121 C-3 121.99 -3 122.98 -3 124 C-2.34 124 -1.68 124 -1 124 C2 127.46153846 2 127.46153846 2 130 C2.66 130 3.32 130 4 130 C4 130.99 4 131.98 4 133 C4.66 133 5.32 133 6 133 C6 133.66 6 134.32 6 135 C6.66 135 7.32 135 8 135 C8 135.66 8 136.32 8 137 C8.66 137 9.32 137 10 137 C10 137.66 10 138.32 10 139 C10.99 139 11.98 139 13 139 C13 139.66 13 140.32 13 141 C13.61875 141.309375 14.2375 141.61875 14.875 141.9375 C16.25 142.625 17.625 143.3125 19 144 C19 144.66 19 145.32 19 146 C20.32 146 21.64 146 23 146 C23 146.66 23 147.32 23 148 C24.32 148 25.64 148 27 148 C27 148.66 27 149.32 27 150 C28.98 150 30.96 150 33 150 C33 150.33 33 150.66 33 151 C34.134375 151.309375 35.26875 151.61875 36.4375 151.9375 C40 153 40 153 41 154 C51.66951125 155.62144542 64.41063311 156.37942892 75 154 C76.79642078 152.56017235 76.79642078 152.56017235 78 151 C77.34 150.67 76.68 150.34 76 150 C75.59270772 147.67843403 75.25561323 145.3431213 75 143 C74.67 143 74.34 143 74 143 C74 139.37 74 135.74 74 132 C73.34 132 72.68 132 72 132 C72 118.47 72 104.94 72 91 C72.66 91 73.32 91 74 91 C74 87.37 74 83.74 74 80 C74.33 80 74.66 80 75 80 C75.28875 78.9275 75.5775 77.855 75.875 76.75 C76.72820109 73.90599636 77.5636503 71.56491017 79 69 C79.66 69 80.32 69 81 69 C81 67.68 81 66.36 81 65 C81.66 65 82.32 65 83 65 C83 64.01 83 63.02 83 62 C83.66 62 84.32 62 85 62 C85 61.01 85 60.02 85 59 C85.66 59 86.32 59 87 59 C87 58.34 87 57.68 87 57 C87.66 57 88.32 57 89 57 C89 56.34 89 55.68 89 55 C89.99 55 90.98 55 92 55 C92 54.01 92 53.02 92 52 C97.14285714 48 97.14285714 48 101 48 C101 47.34 101 46.68 101 46 C103.475 45.505 103.475 45.505 106 45 C106 44.67 106 44.34 106 44 C115.12752383 43.25559718 123.87876505 42.74389773 133 44 C133 44.66 133 45.32 133 46 C133.9075 45.9175 134.815 45.835 135.75 45.75 C139.71789009 46.05522231 140.4477683 47.09573634 143 50 C143.99 50.33 144.98 50.66 146 51 C146 51.66 146 52.32 146 53 C146.66 53 147.32 53 148 53 C148 53.66 148 54.32 148 55 C148.66 55 149.32 55 150 55 C150 55.66 150 56.32 150 57 C150.66 57 151.32 57 152 57 C152 57.99 152 58.98 152 60 C152.66 60 153.32 60 154 60 C157 63.46153846 157 63.46153846 157 66 C157.66 66 158.32 66 159 66 C159 67.65 159 69.3 159 71 C159.66 71 160.32 71 161 71 C161 73.64 161 76.28 161 79 C161.66 79 162.32 79 163 79 C163 87.91 163 96.82 163 106 C162.34 106 161.68 106 161 106 C161 109.63 161 113.26 161 117 C160.67 117 160.34 117 160 117 C159.67 118.98 159.34 120.96 159 123 C158.34 123 157.68 123 157 123 C156.814375 124.0828125 156.814375 124.0828125 156.625 125.1875 C156.0095069 127.95721894 155.11555626 130.3970354 154 133 C153.34 133 152.68 133 152 133 C152 134.32 152 135.64 152 137 C151.34 137 150.68 137 150 137 C150 138.32 150 139.64 150 141 C149.34 141 148.68 141 148 141 C148 141.99 148 142.98 148 144 C147.01 144 146.02 144 145 144 C144.01 146.97 144.01 146.97 143 150 C142.34 150 141.68 150 141 150 C140.34 151.65 139.68 153.3 139 155 C138.01 155 137.02 155 136 155 C135.71125 155.598125 135.4225 156.19625 135.125 156.8125 C134 159 134 159 132 162 C131.01 162 130.02 162 129 162 C129 162.66 129 163.32 129 164 C128.34 164 127.68 164 127 164 C127 164.66 127 165.32 127 166 C126.34 166.33 125.68 166.66 125 167 C125.495 167.45375 125.99 167.9075 126.5 168.375 C128 170 128 170 128 172 C128.5775 172.268125 129.155 172.53625 129.75 172.8125 C132.05550043 174.02929189 134.02056192 175.30333879 136 177 C136 177.66 136 178.32 136 179 C136.99 179 137.98 179 139 179 C139 179.66 139 180.32 139 181 C139.66 181 140.32 181 141 181 C141 181.66 141 182.32 141 183 C141.515625 183.0825 142.03125 183.165 142.5625 183.25 C146.04455732 184.32140225 148.87200885 186.13523605 152 188 C152 188.66 152 189.32 152 190 C153.98 190 155.96 190 158 190 C158 190.33 158 190.66 158 191 C159.65 191.33 161.3 191.66 163 192 C163 192.33 163 192.66 163 193 C163.56589844 193.13277344 164.13179687 193.26554688 164.71484375 193.40234375 C165.81505859 193.66724609 165.81505859 193.66724609 166.9375 193.9375 C167.66839844 194.11152344 168.39929688 194.28554688 169.15234375 194.46484375 C171 195 171 195 172 196 C173.80811184 196.20896317 175.62216032 196.36780361 177.4375 196.5 C182.78015267 196.89007634 182.78015267 196.89007634 185 198 C186.9981051 198.09649939 188.9995718 198.12980872 191 198.125 C192.0725 198.12757813 193.145 198.13015625 194.25 198.1328125 C196.96182052 198.1872341 196.96182052 198.1872341 199 197 C202.04838667 196.72367142 205.09654869 196.55341702 208.15234375 196.37890625 C211.19729591 196.18632627 211.19729591 196.18632627 214 194 C217.1875 193.875 217.1875 193.875 220 194 C220 193.34 220 192.68 220 192 C221.65 192 223.3 192 225 192 C225 191.34 225 190.68 225 190 C226.65 190 228.3 190 230 190 C230 189.34 230 188.68 230 188 C231.32 188 232.64 188 234 188 C234 187.34 234 186.68 234 186 C234.639375 185.87625 235.27875 185.7525 235.9375 185.625 C236.618125 185.41875 237.29875 185.2125 238 185 C238.33 184.34 238.66 183.68 239 183 C241.97372674 179.47558312 244.57329336 178.20728363 249 177 C249 176.34 249 175.68 249 175 C251.375 172.375 251.375 172.375 254 170 C254.66 170 255.32 170 256 170 C256 169.34 256 168.68 256 168 C256.66 168 257.32 168 258 168 C258.103125 167.443125 258.20625 166.88625 258.3125 166.3125 C259.14178408 163.5230899 260.34299056 161.3860936 262 159 C262.66 159 263.32 159 264 159 C266.08379509 155.15299368 267.49686624 151.09945571 269 147 C269.66 147 270.32 147 271 147 C271 145.35 271 143.7 271 142 C271.66 142 272.32 142 273 142 C273 139.69 273 137.38 273 135 C273.66 135 274.32 135 275 135 C275.144375 133.700625 275.28875 132.40125 275.4375 131.0625 C275.875 127.125 275.875 127.125 277 126 C277.21888186 121.63670962 277.1857901 117.26788532 277.18530273 112.8996582 C277.18748064 110.70699411 277.20560789 108.51484002 277.22460938 106.32226562 C277.22754499 104.92708505 277.22952866 103.53190209 277.23046875 102.13671875 C277.23457764 100.86530029 277.23868652 99.59388184 277.24291992 98.28393555 C277.01005441 95.13592151 276.47024635 93.69102063 275 91 C275 89.68 275 88.36 275 87 C274.34 87 273.68 87 273 87 C272.67 85.02 272.34 83.04 272 81 C271.67 81 271.34 81 271 81 C271 79.02 271 77.04 271 75 C270.34 75 269.68 75 269 75 C268.74476563 74.18595703 268.74476563 74.18595703 268.484375 73.35546875 C266.97677889 68.90485259 265.94138245 66.71819479 262 64 C262 62.68 262 61.36 262 60 C261.34 60 260.68 60 260 60 C259.66015625 57.73046875 259.66015625 57.73046875 260 55 C262.37109375 53.05078125 262.37109375 53.05078125 265.4375 51.3125 C269.39214051 49.30916741 269.39214051 49.30916741 272 46 C273.32 46 274.64 46 276 46 C276 45.34 276 44.68 276 44 C278.18771713 41.67555054 279.87166826 40.1376523 283.11328125 39.7421875 C285.07738938 39.74916479 287.0403779 39.86714426 289 40 C289.45375 40.969375 289.9075 41.93875 290.375 42.9375 C291.65786221 46.07079582 291.65786221 46.07079582 294 47 C294 48.32 294 49.64 294 51 C294.66 51 295.32 51 296 51 C296 51.99 296 52.98 296 54 C296.66 54 297.32 54 298 54 C298.99 57.3 299.98 60.6 301 64 C301.66 64 302.32 64 303 64 C303.33 65.65 303.66 67.3 304 69 C304.33 69 304.66 69 305 69 C305 71.31 305 73.62 305 76 C305.66 76 306.32 76 307 76 C307.144375 77.134375 307.28875 78.26875 307.4375 79.4375 C307.61171478 82.80777201 307.61171478 82.80777201 309 84 C309.2094361 85.97509873 309.36803822 87.95571682 309.5 89.9375 C309.67735084 94.12167415 309.67735084 94.12167415 311 98 C311.09699846 99.93557678 311.13076201 101.87449537 311.1328125 103.8125 C311.13410156 104.97007812 311.13539063 106.12765625 311.13671875 107.3203125 C311.13285156 108.53460938 311.12898438 109.74890625 311.125 111 C311.12886719 112.21429688 311.13273437 113.42859375 311.13671875 114.6796875 C311.13478516 116.41605469 311.13478516 116.41605469 311.1328125 118.1875 C311.13168457 119.25355469 311.13055664 120.31960938 311.12939453 121.41796875 C311 124 311 124 310 126 C309.77049681 128.204364 309.58924067 130.41392173 309.4375 132.625 C309.35371094 133.81351563 309.26992188 135.00203125 309.18359375 136.2265625 C309.12300781 137.14179688 309.06242187 138.05703125 309 139 C308.34 139 307.68 139 307 139 C307 141.31 307 143.62 307 146 C306.34 146 305.68 146 305 146 C305 148.31 305 150.62 305 153 C304.34 153 303.68 153 303 153 C303 154.98 303 156.96 303 159 C302.34 159.33 301.68 159.66 301 160 C300.09656316 161.88263881 300.09656316 161.88263881 299.375 164.0625 C299.11460937 164.79597656 298.85421875 165.52945313 298.5859375 166.28515625 C298.39257812 166.85105469 298.19921875 167.41695312 298 168 C297.34 168 296.68 168 296 168 C296 169.32 296 170.64 296 172 C295.34 172 294.68 172 294 172 C294 172.99 294 173.98 294 175 C293.34 175 292.68 175 292 175 C291.87625 175.598125 291.7525 176.19625 291.625 176.8125 C291 179 291 179 289 182 C288.34 182 287.68 182 287 182 C287 182.99 287 183.98 287 185 C286.34 185 285.68 185 285 185 C284.731875 185.5775 284.46375 186.155 284.1875 186.75 C282.97070811 189.05550043 281.69666121 191.02056192 280 193 C279.34 193 278.68 193 278 193 C278 193.66 278 194.32 278 195 C277.34 195 276.68 195 276 195 C276 195.66 276 196.32 276 197 C274.01739574 198.68732277 272.0167658 200.35366057 270 202 C269.67 202.66 269.34 203.32 269 204 C268.01 204 267.02 204 266 204 C266 204.66 266 205.32 266 206 C263 208 263 208 260 208 C260 208.66 260 209.32 260 210 C258.6875 211.625 258.6875 211.625 257 213 C256.01 213 255.02 213 254 213 C254 213.66 254 214.32 254 215 C252.68 215 251.36 215 250 215 C250 215.66 250 216.32 250 217 C249.31292969 217.25394531 248.62585938 217.50789062 247.91796875 217.76953125 C247.01691406 218.11371094 246.11585938 218.45789063 245.1875 218.8125 C244.29417969 219.14894531 243.40085937 219.48539063 242.48046875 219.83203125 C240.04594295 220.97836702 238.84718452 222.11083402 237 224 C233.8125 224.6875 233.8125 224.6875 231 225 C231 225.33 231 225.66 231 226 C228.36 226 225.72 226 223 226 C223 226.66 223 227.32 223 228 C219.7 228 216.4 228 213 228 C213 228.66 213 229.32 213 230 C206.75204325 230.02527124 200.50409959 230.04283344 194.25610352 230.05493164 C192.12881986 230.05997298 190.00153969 230.06680591 187.87426758 230.07543945 C184.82372174 230.08751379 181.77322155 230.09323014 178.72265625 230.09765625 C177.28672874 230.10539818 177.28672874 230.10539818 175.8217926 230.11329651 C174.94095505 230.11337204 174.06011749 230.11344757 173.15258789 230.11352539 C171.9834359 230.11685631 171.9834359 230.11685631 170.79066467 230.12025452 C169 230 169 230 168 229 C166.65252916 228.76924918 165.29622435 228.58846937 163.9375 228.4375 C162.638125 228.293125 161.33875 228.14875 160 228 C160 227.34 160 226.68 160 226 C157.36 226 154.72 226 152 226 C152 225.34 152 224.68 152 224 C150.9275 224.061875 149.855 224.12375 148.75 224.1875 C144.91054943 223.99552747 143.61381519 223.71836779 141 221 C141 220.34 141 219.68 141 219 C139.35 219 137.7 219 136 219 C136 218.34 136 217.68 136 217 C134.68 217 133.36 217 132 217 C132 216.34 132 215.68 132 215 C131.401875 214.855625 130.80375 214.71125 130.1875 214.5625 C128.43849596 214.1127561 126.71322977 213.57107659 125 213 C125 212.34 125 211.68 125 211 C124.38125 210.690625 123.7625 210.38125 123.125 210.0625 C121.75 209.375 120.375 208.6875 119 208 C119 207.34 119 206.68 119 206 C118.01 206 117.02 206 116 206 C116 205.34 116 204.68 116 204 C115.01 204 114.02 204 113 204 C110.3125 201.625 110.3125 201.625 108 199 C108 198.34 108 197.68 108 197 C107.34 197 106.68 197 106 197 C106 196.34 106 195.68 106 195 C105.01 195 104.02 195 103 195 C103 194.01 103 193.02 103 192 C102.34 192 101.68 192 101 192 C101 191.01 101 190.02 101 189 C100.01 188.67 99.02 188.34 98 188 C98 187.34 98 186.68 98 186 C97.34 186 96.68 186 96 186 C96 185.34 96 184.68 96 184 C93.36 184 90.72 184 88 184 C88 184.66 88 185.32 88 186 C84.7 186 81.4 186 78 186 C78 186.66 78 187.32 78 188 C72.32169922 188.02464705 66.64342931 188.04283462 60.96508789 188.05493164 C59.03181415 188.05997256 57.09854424 188.06680519 55.1652832 188.07543945 C52.39273128 188.08751565 49.62022959 188.09323057 46.84765625 188.09765625 C45.54297142 188.10539818 45.54297142 188.10539818 44.21192932 188.11329651 C42.14094186 188.11349185 40.07005676 188.06208168 38 188 C37.67 187.67 37.34 187.34 37 187 C35.48530552 186.76807135 33.96245438 186.58784762 32.4375 186.4375 C31.61121094 186.35371094 30.78492188 186.26992188 29.93359375 186.18359375 C29.29550781 186.12300781 28.65742188 186.06242188 28 186 C28 185.34 28 184.68 28 184 C25.69 184 23.38 184 21 184 C21 183.67 21 183.34 21 183 C20.0925 182.9175 19.185 182.835 18.25 182.75 C14.45261761 181.87368099 13.69341866 180.69341866 11 178 C8.37561889 176.79420328 5.74726087 175.91575362 3 175 C3 174.34 3 173.68 3 173 C2.401875 172.855625 1.80375 172.71125 1.1875 172.5625 C-3.10588869 171.45848577 -4.39074824 170.47900235 -7 167 C-7.99 166.67 -8.98 166.34 -10 166 C-10 165.34 -10 164.68 -10 164 C-10.66 164 -11.32 164 -12 164 C-12 163.34 -12 162.68 -12 162 C-12.66 162 -13.32 162 -14 162 C-14 161.34 -14 160.68 -14 160 C-14.99 159.67 -15.98 159.34 -17 159 C-17 158.34 -17 157.68 -17 157 C-17.66 157 -18.32 157 -19 157 C-19 156.34 -19 155.68 -19 155 C-19.66 155 -20.32 155 -21 155 C-21 154.34 -21 153.68 -21 153 C-21.66 153 -22.32 153 -23 153 C-24.01866229 151.34467377 -25.01810813 149.67739862 -26 148 C-26.66 147.67 -27.32 147.34 -28 147 C-28 146.01 -28 145.02 -28 144 C-28.66 144 -29.32 144 -30 144 C-32 141 -32 141 -32 137 C-32.66 137 -33.32 137 -34 137 C-37 131.375 -37 131.375 -37 128 C-37.66 128 -38.32 128 -39 128 C-41.32590854 124.36576791 -41.16265833 121.22911669 -41 117 C-41.66 117 -42.32 117 -43 117 C-43.22786458 114.94921875 -43.45572917 112.8984375 -43.68359375 110.84765625 C-43.81886614 108.98859771 -43.81886614 108.98859771 -45 108 C-45.57381254 105.1668006 -46.02955837 102.32080238 -46.5 99.46875 C-46.74993507 97.06584023 -46.74993507 97.06584023 -48 96 C-48.25343003 92.25690241 -48.18523237 88.50065517 -48.1875 84.75 C-48.19974609 83.69941406 -48.21199219 82.64882813 -48.22460938 81.56640625 C-48.22654297 80.54933594 -48.22847656 79.53226562 -48.23046875 78.484375 C-48.23457764 77.55334961 -48.23868652 76.62232422 -48.24291992 75.66308594 C-47.97928161 72.77286815 -47.16391342 70.64331677 -46 68 C-45.56111075 65.79745973 -45.56111075 65.79745973 -45.375 63.6875 C-45.25125 62.470625 -45.1275 61.25375 -45 60 C-44.34 60 -43.68 60 -43 60 C-43 57.03 -43 54.06 -43 51 C-42.34 51 -41.68 51 -41 51 C-41 49.02 -41 47.04 -41 45 C-40.34 45 -39.68 45 -39 45 C-39.04125 44.21625 -39.0825 43.4325 -39.125 42.625 C-39 40 -39 40 -37 38 C-36.08672231 36.31182002 -35.21563069 34.60050509 -34.375 32.875 C-33.70597656 31.50988281 -33.70597656 31.50988281 -33.0234375 30.1171875 C-32.68570313 29.41851562 -32.34796875 28.71984375 -32 28 C-31.34 28 -30.68 28 -30 28 C-29.896875 27.4225 -29.79375 26.845 -29.6875 26.25 C-28.89828033 23.66709925 -27.67687432 22.0960929 -26 20 C-25.67 19.34 -25.34 18.68 -25 18 C-24.34 18 -23.68 18 -23 18 C-23 17.34 -23 16.68 -23 16 C-22.34 16 -21.68 16 -21 16 C-21 15.01 -21 14.02 -21 13 C-19.35 12.34 -17.7 11.68 -16 11 C-16 10.34 -16 9.68 -16 9 C-15.34 9 -14.68 9 -14 9 C-13.731875 8.360625 -13.46375 7.72125 -13.1875 7.0625 C-12 5 -12 5 -9 4 C-9 3.34 -9 2.68 -9 2 C-5.86501708 0.14223235 -3.62528568 -0.20140476 0 0 Z M117 76 C117 76.66 117 77.32 117 78 C116.1028125 78.1546875 116.1028125 78.1546875 115.1875 78.3125 C112.63994217 79.11316103 111.58475902 79.86057532 110 82 C110 83.32 110 84.64 110 86 C109.34 86 108.68 86 108 86 C107.67 87.65 107.34 89.3 107 91 C106.67 91 106.34 91 106 91 C105.67 96.61 105.34 102.22 105 108 C104.67 108 104.34 108 104 108 C104 109.98 104 111.96 104 114 C104.33 114 104.66 114 105 114 C105.33 119.61 105.66 125.22 106 131 C106.33 131 106.66 131 107 131 C107.33 132.98 107.66 134.96 108 137 C108.33 136.34 108.66 135.68 109 135 C109.99 135 110.98 135 112 135 C112 134.34 112 133.68 112 133 C112.66 133 113.32 133 114 133 C114 132.01 114 131.02 114 130 C114.66 130 115.32 130 116 130 C116 129.01 116 128.02 116 127 C117.485 126.505 117.485 126.505 119 126 C120.21869929 123.49552484 120.21869929 123.49552484 121 121 C121.66 121 122.32 121 123 121 C123 119.35 123 117.7 123 116 C123.66 116 124.32 116 125 116 C127.32590854 112.36576791 127.16265833 109.22911669 127 105 C127.66 105 128.32 105 129 105 C129 97.41 129 89.82 129 82 C128.34 82 127.68 82 127 82 C127 81.34 127 80.68 127 80 C126.34 80 125.68 80 125 80 C125 79.34 125 78.68 125 78 C124.34 78 123.68 78 123 78 C123 77.34 123 76.68 123 76 C121.02 76 119.04 76 117 76 Z " fill="#2D31F9" transform="translate(117,311)"/>
<path d="M0 0 C4.09338652 -0.04939115 8.18665798 -0.08571501 12.28027344 -0.10986328 C13.67320781 -0.11992877 15.06612102 -0.13358234 16.45898438 -0.15087891 C18.4595436 -0.1751022 20.46025615 -0.18540814 22.4609375 -0.1953125 C24.26763916 -0.21102295 24.26763916 -0.21102295 26.11083984 -0.22705078 C29 0 29 0 31 2 C34.63253665 3.14357635 38.29741575 4.11137978 42 5 C42 5.66 42 6.32 42 7 C43.32 7 44.64 7 46 7 C46 7.66 46 8.32 46 9 C47.65 9 49.3 9 51 9 C51 9.66 51 10.32 51 11 C51.66 11 52.32 11 53 11 C53 11.66 53 12.32 53 13 C53.639375 13.12375 54.27875 13.2475 54.9375 13.375 C55.618125 13.58125 56.29875 13.7875 57 14 C57.495 14.99 57.495 14.99 58 16 C58.07347656 14.71802734 58.07347656 14.71802734 58.1484375 13.41015625 C58.22320313 12.30542969 58.29796875 11.20070313 58.375 10.0625 C58.44460938 8.96035156 58.51421875 7.85820312 58.5859375 6.72265625 C58.72257813 5.82417969 58.85921875 4.92570312 59 4 C69.73726636 -1.36863318 82.99537126 3 95 3 C95 55.47 95 107.94 95 162 C94.34 162 93.68 162 93 162 C93 164.97 93 167.94 93 171 C92.34 171 91.68 171 91 171 C91.0825 171.86625 91.165 172.7325 91.25 173.625 C90.94146486 177.79022433 89.40374238 179.6493288 87 183 C86.23060319 185.22602615 86.23060319 185.22602615 86 187 C85.34 187 84.68 187 84 187 C84 188.32 84 189.64 84 191 C83.34 191 82.68 191 82 191 C82 191.66 82 192.32 82 193 C80.75 194.375 80.75 194.375 79 196 C78.319375 196.721875 77.63875 197.44375 76.9375 198.1875 C75 200 75 200 73 200 C73 200.66 73 201.32 73 202 C67.52380952 207 67.52380952 207 65 207 C65 207.66 65 208.32 65 209 C63.68 209 62.36 209 61 209 C61 209.66 61 210.32 61 211 C59.35 211 57.7 211 56 211 C56 211.66 56 212.32 56 213 C55.030625 213.309375 54.06125 213.61875 53.0625 213.9375 C50.15934208 214.69523342 50.15934208 214.69523342 49 216 C46.32941149 216.14115161 43.67567762 216.04247107 41 216 C41 216.66 41 217.32 41 218 C28.46 218 15.92 218 3 218 C3 217.67 3 217.34 3 217 C2.01 216.9175 1.02 216.835 0 216.75 C-3.83663267 216.22188052 -6.74934523 214.73867843 -10.1328125 212.921875 C-12.37657134 211.81407775 -14.52287577 211.30964053 -17 211 C-17 210.34 -17 209.68 -17 209 C-18.32 209 -19.64 209 -21 209 C-21 208.34 -21 207.68 -21 207 C-21.99 207 -22.98 207 -24 207 C-25.3743291 205.70896357 -26.70896357 204.3743291 -28 203 C-28.66 202.67 -29.32 202.34 -30 202 C-30 201.34 -30 200.68 -30 200 C-30.61875 199.690625 -31.2375 199.38125 -31.875 199.0625 C-33.25 198.375 -34.625 197.6875 -36 197 C-36 196.01 -36 195.02 -36 194 C-36.66 194 -37.32 194 -38 194 C-41 189.61538462 -41 189.61538462 -41 187 C-41.66 187 -42.32 187 -43 187 C-43 185.68 -43 184.36 -43 183 C-43.66 183 -44.32 183 -45 183 C-45 181.35 -45 179.7 -45 178 C-45.66 178 -46.32 178 -47 178 C-47.06058594 177.31292969 -47.12117187 176.62585938 -47.18359375 175.91796875 C-47.30927734 174.56638672 -47.30927734 174.56638672 -47.4375 173.1875 C-47.51871094 172.29417969 -47.59992187 171.40085937 -47.68359375 170.48046875 C-47.93489767 167.87256441 -47.93489767 167.87256441 -49 165 C-45.98786971 163.49393485 -42.88717378 163.87839669 -39.5859375 163.90234375 C-38.85629791 163.9037587 -38.12665833 163.90517365 -37.37490845 163.90663147 C-35.04156415 163.91223469 -32.70831536 163.92478765 -30.375 163.9375 C-28.79427222 163.94251459 -27.21354293 163.94707757 -25.6328125 163.95117188 C-21.75517146 163.96220516 -17.87760193 163.97947189 -14 164 C-13.34 165.65 -12.68 167.3 -12 169 C-11.67 169 -11.34 169 -11 169 C-11 170.65 -11 172.3 -11 174 C-9.68 174.66 -8.36 175.32 -7 176 C-7 176.66 -7 177.32 -7 178 C-6.34 178 -5.68 178 -5 178 C-5 178.66 -5 179.32 -5 180 C-4.01 180 -3.02 180 -2 180 C-2 180.66 -2 181.32 -2 182 C-1.01 182 -0.02 182 1 182 C1 182.66 1 183.32 1 184 C2.98 184 4.96 184 7 184 C7 184.66 7 185.32 7 186 C9.97 186 12.94 186 16 186 C16 186.33 16 186.66 16 187 C20.62 187 25.24 187 30 187 C30 186.67 30 186.34 30 186 C32.64 185.67 35.28 185.34 38 185 C38 184.67 38 184.34 38 184 C39.65 184 41.3 184 43 184 C43 183.34 43 182.68 43 182 C47.38461538 179 47.38461538 179 50 179 C50.37125 178.195625 50.37125 178.195625 50.75 177.375 C52 175 52 175 54.0625 172 C55.6901836 169.47971572 56.55341928 167.90277468 57 165 C57.66 165 58.32 165 59 165 C59 154.77 59 144.54 59 134 C58.34 134 57.68 134 57 134 C57 134.66 57 135.32 57 136 C56.34 136 55.68 136 55 136 C55 136.66 55 137.32 55 138 C54.01 138 53.02 138 52 138 C52 138.66 52 139.32 52 140 C50.68 140 49.36 140 48 140 C48 140.66 48 141.32 48 142 C45.97212022 144.43345574 43.97767711 145.92472771 41 147 C38.66796188 147.0777346 36.33160941 147.08967728 34 147 C34 147.66 34 148.32 34 149 C33.36191406 149.06058594 32.72382812 149.12117187 32.06640625 149.18359375 C31.24011719 149.26738281 30.41382813 149.35117187 29.5625 149.4375 C28.73878906 149.51871094 27.91507813 149.59992188 27.06640625 149.68359375 C25.01337975 149.78930815 25.01337975 149.78930815 24 151 C22.52347336 151.09880797 21.04232764 151.13079245 19.5625 151.1328125 C18.22058594 151.13474609 18.22058594 151.13474609 16.8515625 151.13671875 C15.91054688 151.13285156 14.96953125 151.12898437 14 151.125 C13.05898438 151.12886719 12.11796875 151.13273438 11.1484375 151.13671875 C10.25382813 151.13542969 9.35921875 151.13414062 8.4375 151.1328125 C7.61121094 151.13168457 6.78492188 151.13055664 5.93359375 151.12939453 C4 151 4 151 3 150 C1.48530552 149.76807135 -0.03754562 149.58784762 -1.5625 149.4375 C-2.38878906 149.35371094 -3.21507812 149.26992188 -4.06640625 149.18359375 C-4.70449219 149.12300781 -5.34257813 149.06242188 -6 149 C-6 148.34 -6 147.68 -6 147 C-7.0725 147.04125 -8.145 147.0825 -9.25 147.125 C-12.65747485 147.0114175 -14.20739631 146.78726636 -17 145 C-17 144.34 -17 143.68 -17 143 C-19.63904371 141.58622659 -22.07120629 140.62759865 -25 140 C-25 139.34 -25 138.68 -25 138 C-25.66 138 -26.32 138 -27 138 C-27 137.34 -27 136.68 -27 136 C-27.99 136 -28.98 136 -30 136 C-30 135.34 -30 134.68 -30 134 C-30.66 134 -31.32 134 -32 134 C-32 133.34 -32 132.68 -32 132 C-32.928125 131.566875 -32.928125 131.566875 -33.875 131.125 C-36 130 -36 130 -38 128 C-38 127.01 -38 126.02 -38 125 C-38.66 125 -39.32 125 -40 125 C-41.625 123.75 -41.625 123.75 -43 122 C-43 120.68 -43 119.36 -43 118 C-43.66 118 -44.32 118 -45 118 C-45 117.01 -45 116.02 -45 115 C-45.66 115 -46.32 115 -47 115 C-47 113.35 -47 111.7 -47 110 C-47.66 110 -48.32 110 -49 110 C-50.66489182 106.07561214 -51.87204037 102.10899581 -53 98 C-53.33 98 -53.66 98 -54 98 C-54.495 90.575 -54.495 90.575 -55 83 C-55.33 83 -55.66 83 -56 83 C-56 77.39 -56 71.78 -56 66 C-55.67 66 -55.34 66 -55 66 C-54.67 61.38 -54.34 56.76 -54 52 C-53.67 52 -53.34 52 -53 52 C-52.71125 50.948125 -52.4225 49.89625 -52.125 48.8125 C-51.22774807 45.77181289 -50.23576581 42.91287656 -49 40 C-48.34 40 -47.68 40 -47 40 C-47 38.35 -47 36.7 -47 35 C-46.34 35 -45.68 35 -45 35 C-45 34.01 -45 33.02 -45 32 C-44.34 32 -43.68 32 -43 32 C-43 30.68 -43 29.36 -43 28 C-41.625 26.25 -41.625 26.25 -40 25 C-39.34 25 -38.68 25 -38 25 C-38 24.34 -38 23.68 -38 23 C-37.34 23 -36.68 23 -36 23 C-36 22.01 -36 21.02 -36 20 C-35.34 20 -34.68 20 -34 20 C-34 19.34 -34 18.68 -34 18 C-33.01 18 -32.02 18 -31 18 C-31 17.34 -31 16.68 -31 16 C-30.34 16 -29.68 16 -29 16 C-29 15.34 -29 14.68 -29 14 C-25.80358226 11.60268669 -22.99881788 9.61520275 -19 9 C-19 8.34 -19 7.68 -19 7 C-17.35 7 -15.7 7 -14 7 C-14 6.34 -14 5.68 -14 5 C-9.44508386 2.79600832 -4.97093824 2.41153737 0 2 C0 1.34 0 0.68 0 0 Z M15 30 C15 30.33 15 30.66 15 31 C10.545 31.495 10.545 31.495 6 32 C6 32.66 6 33.32 6 34 C4.35 34 2.7 34 1 34 C1 34.66 1 35.32 1 36 C-0.0209375 36.2784375 -0.0209375 36.2784375 -1.0625 36.5625 C-5.11926069 38.54772332 -8.23701516 41.42484094 -11 45 C-11 45.99 -11 46.98 -11 48 C-11.66 48 -12.32 48 -13 48 C-16.03973278 51.54635491 -18.34166151 55.24667436 -18.3125 60 C-18.209375 60.99 -18.10625 61.98 -18 63 C-18.66 63 -19.32 63 -20 63 C-20 70.92 -20 78.84 -20 87 C-19.34 87 -18.68 87 -18 87 C-18.103125 87.969375 -18.20625 88.93875 -18.3125 89.9375 C-18.35014655 96.098986 -14.2920245 101.06196325 -11 106 C-10.34 106 -9.68 106 -9 106 C-9 106.99 -9 107.98 -9 109 C-8.34 109 -7.68 109 -7 109 C-7 109.66 -7 110.32 -7 111 C-5.68 111 -4.36 111 -3 111 C-3 111.66 -3 112.32 -3 113 C-2.34 113.66 -1.68 114.32 -1 115 C0.32 115 1.64 115 3 115 C3.33 115.99 3.66 116.98 4 118 C5.65 118 7.3 118 9 118 C9 118.66 9 119.32 9 120 C12.54159657 120.05841253 16.08306793 120.09373452 19.625 120.125 C21.12353516 120.15013672 21.12353516 120.15013672 22.65234375 120.17578125 C30.02321617 120.2293711 30.02321617 120.2293711 37 118 C37.33 117.34 37.66 116.68 38 116 C39.9375 114.9375 39.9375 114.9375 42 114 C42.66 113.67 43.32 113.34 44 113 C44 112.34 44 111.68 44 111 C45.32 110.34 46.64 109.68 48 109 C48 108.34 48 107.68 48 107 C48.90492188 106.63841797 48.90492188 106.63841797 49.828125 106.26953125 C52.45683432 104.73296555 53.30298202 103.3448324 54.75 100.6875 C55.17796875 99.92824219 55.6059375 99.16898437 56.046875 98.38671875 C57.09933613 95.75125256 57.17914601 93.81159711 57 91 C57.66 91 58.32 91 59 91 C59 80.44 59 69.88 59 59 C58.67 59 58.34 59 58 59 C57.67 57.35 57.34 55.7 57 54 C56.34 54 55.68 54 55 54 C54.87625 53.236875 54.7525 52.47375 54.625 51.6875 C54.11897208 48.79732864 54.11897208 48.79732864 52 46 C51.34 46 50.68 46 50 46 C50 45.34 50 44.68 50 44 C49.34 44 48.68 44 48 44 C48 43.01 48 42.02 48 41 C45.95713929 39.06937645 45.95713929 39.06937645 43.3125 37.3125 C42.44238281 36.68988281 41.57226562 36.06726563 40.67578125 35.42578125 C37.80841471 33.89791441 36.19322078 33.6950618 33 34 C33 33.34 33 32.68 33 32 C30.36 31.67 27.72 31.34 25 31 C25 30.67 25 30.34 25 30 C21.7 30 18.4 30 15 30 Z M60 131 C61 133 61 133 61 133 Z " fill="#2D31F9" transform="translate(672,379)"/>
<path d="M0 0 C8.91 0 17.82 0 27 0 C27 0.66 27 1.32 27 2 C27.59167969 2.04898437 28.18335938 2.09796875 28.79296875 2.1484375 C33.19104472 2.56456867 36.96928897 3.04965595 41 5 C41 5.66 41 6.32 41 7 C42.65 7 44.3 7 46 7 C46 7.66 46 8.32 46 9 C47.32 9 48.64 9 50 9 C52.75 11.375 52.75 11.375 55 14 C55 14.66 55 15.32 55 16 C55.66 16 56.32 16 57 16 C57 16.66 57 17.32 57 18 C57.66 18 58.32 18 59 18 C60.70680947 19.62553283 62.37660195 21.29115995 64 23 C64.61875 22.175 65.2375 21.35 65.875 20.5 C66.926875 19.2625 66.926875 19.2625 68 18 C68.66 18 69.32 18 70 18 C70 17.34 70 16.68 70 16 C71.2065625 15.5978125 71.2065625 15.5978125 72.4375 15.1875 C73.283125 14.795625 74.12875 14.40375 75 14 C75.33 13.01 75.66 12.02 76 11 C76.66 10.34 77.32 9.68 78 9 C79.32 9 80.64 9 82 9 C82 8.34 82 7.68 82 7 C83.32 7 84.64 7 86 7 C86 6.34 86 5.68 86 5 C87.76949612 4.49528803 89.54065223 3.99639315 91.3125 3.5 C92.29863281 3.2215625 93.28476562 2.943125 94.30078125 2.65625 C97 2 97 2 100 2 C100 1.34 100 0.68 100 0 C108.91 0 117.82 0 127 0 C127 0.66 127 1.32 127 2 C128.27875 2.0825 129.5575 2.165 130.875 2.25 C136.34050801 2.83217653 141.01815378 4.76388948 146 7 C146 7.66 146 8.32 146 9 C147.32 9 148.64 9 150 9 C153.12444429 11.67809511 155.43977363 14.17035345 157 18 C157.66 18 158.32 18 159 18 C159 18.66 159 19.32 159 20 C159.66 20 160.32 20 161 20 C161 20.99 161 21.98 161 23 C161.66 23 162.32 23 163 23 C164.625 24.25 164.625 24.25 166 26 C166 27.32 166 28.64 166 30 C166.66 30 167.32 30 168 30 C168 31.65 168 33.3 168 35 C168.66 35 169.32 35 170 35 C170 37.31 170 39.62 170 42 C170.66 42 171.32 42 172 42 C172.04898437 42.61488281 172.09796875 43.22976563 172.1484375 43.86328125 C172.26058594 45.07564453 172.26058594 45.07564453 172.375 46.3125 C172.47941406 47.51326172 172.47941406 47.51326172 172.5859375 48.73828125 C172.89564426 51.27224441 172.89564426 51.27224441 175 54 C175.18991994 56.94457373 175.2625072 59.79376529 175.24291992 62.73828125 C175.24481827 63.63122894 175.24671661 64.52417664 175.24867249 65.44418335 C175.2523818 68.40037778 175.2416736 71.35632734 175.23046875 74.3125 C175.2292769 76.36368786 175.2288238 78.41487627 175.2290802 80.46606445 C175.22751505 84.76679903 175.21922305 89.06745041 175.20581055 93.36816406 C175.18882071 98.8865025 175.18499621 104.40474944 175.18575573 109.92311096 C175.18548405 114.1592293 175.18000322 118.39532755 175.17275429 122.63143921 C175.16956763 124.6664515 175.16760022 126.70146606 175.16686058 128.73648071 C175.16469701 131.57826631 175.1559523 134.4199541 175.14526367 137.26171875 C175.14571686 138.10648773 175.14617004 138.95125671 175.14663696 139.82162476 C175.12838285 143.13387299 175.05476052 145.83571845 174 149 C169.31860746 149.02465288 164.63725241 149.04283739 159.95581055 149.05493164 C158.36205386 149.05997157 156.76830181 149.0668035 155.17456055 149.07543945 C152.88849747 149.08751999 150.60249533 149.09323155 148.31640625 149.09765625 C147.59973282 149.10281754 146.88305939 149.10797882 146.14466858 149.11329651 C144.42936328 149.11349263 142.71418734 149.06192007 141 149 C139.04371216 147.04371216 139.82567217 143.27057749 139.81054688 140.59716797 C139.79810692 139.43340134 139.79810692 139.43340134 139.78541565 138.24612427 C139.76796537 136.55299841 139.75281236 134.85984773 139.73963928 133.1666832 C139.71860814 130.47402461 139.69157337 127.78148573 139.66296387 125.08889771 C139.6031422 119.35097869 139.55123858 113.6130011 139.5 107.875 C139.44047057 101.27099751 139.3776113 94.66705032 139.30812073 88.06314468 C139.28191705 85.43411282 139.26086288 82.80507457 139.2401123 80.17599487 C139.14822012 70.41414023 138.78174265 60.73283301 138 51 C137.34 51 136.68 51 136 51 C136 49.35 136 47.7 136 46 C135.34 46 134.68 46 134 46 C132 43 132 43 132 40 C131.34 40 130.68 40 130 40 C130 39.34 130 38.68 130 38 C129.34 38 128.68 38 128 38 C128 37.34 128 36.68 128 36 C125.36 35.34 122.72 34.68 120 34 C120 33.34 120 32.68 120 32 C117.03 32 114.06 32 111 32 C111 31.67 111 31.34 111 31 C108.69 31 106.38 31 104 31 C104 31.33 104 31.66 104 32 C100.37 32 96.74 32 93 32 C93 32.66 93 33.32 93 34 C91.35 34 89.7 34 88 34 C88 34.66 88 35.32 88 36 C87.34 36 86.68 36 86 36 C86 36.66 86 37.32 86 38 C85.071875 38.70125 84.14375 39.4025 83.1875 40.125 C79.34203012 43.1522848 78.4060845 46.39116747 77 51 C76.34 51 75.68 51 75 51 C75.00444122 52.1835054 75.00888245 53.3670108 75.01345825 54.58638 C75.05395562 65.72555574 75.08396096 76.86471659 75.10362434 88.00394917 C75.11407322 93.73109817 75.12825256 99.45818787 75.15087891 105.18530273 C75.17256791 110.70956698 75.18456031 116.23377409 75.18975449 121.75807762 C75.19345734 123.86845995 75.20068782 125.97883907 75.21146011 128.08919716 C75.22592258 131.03910775 75.22798014 133.98878052 75.22705078 136.9387207 C75.23424133 137.81625504 75.24143188 138.69378937 75.24884033 139.59791565 C75.22810432 145.65784352 75.22810432 145.65784352 73 149 C69.8671875 149.37231445 69.8671875 149.37231445 65.875 149.36328125 C65.1722998 149.36377975 64.46959961 149.36427826 63.74560547 149.36479187 C62.25941135 149.36245061 60.77321333 149.35271888 59.28710938 149.33618164 C57.00875495 149.31259065 54.73157047 149.31561934 52.453125 149.32226562 C41.27907256 149.27907256 41.27907256 149.27907256 39 147 C38.81161646 143.98669994 38.74835557 141.06594957 38.77294922 138.05224609 C38.77265717 137.12536484 38.77236511 136.19848358 38.77206421 135.24351501 C38.77346111 132.17006166 38.78903925 129.09684867 38.8046875 126.0234375 C38.80841635 123.89637382 38.81126392 121.76930844 38.81326294 119.64224243 C38.82090948 114.03620688 38.84056673 108.4302745 38.8626709 102.82427979 C38.88310736 97.10682572 38.89225994 91.38935504 38.90234375 85.671875 C38.92381166 74.44787127 38.9579599 63.2239442 39 52 C38.34 52 37.68 52 37 52 C37 50.35 37 48.7 37 47 C36.34 47 35.68 47 35 47 C33.78125 45.28515625 33.78125 45.28515625 32.5 43.0625 C30.81545121 39.94567974 30.81545121 39.94567974 28 38 C28 37.34 28 36.68 28 36 C27.01 36 26.02 36 25 36 C25 35.34 25 34.68 25 34 C23.35 34 21.7 34 20 34 C20 33.67 20 33.34 20 33 C17.03 32.67 14.06 32.34 11 32 C11 31.67 11 31.34 11 31 C8.36 31 5.72 31 3 31 C3 31.33 3 31.66 3 32 C-0.3 32 -3.6 32 -7 32 C-7 32.66 -7 33.32 -7 34 C-8.65 34 -10.3 34 -12 34 C-12 34.66 -12 35.32 -12 36 C-12.66 36 -13.32 36 -14 36 C-14 36.66 -14 37.32 -14 38 C-15.875 40.125 -15.875 40.125 -18 42 C-18.66 42 -19.32 42 -20 42 C-20 42.99 -20 43.98 -20 45 C-20.66 45 -21.32 45 -22 45 C-22 46.98 -22 48.96 -22 51 C-22.99 51.495 -22.99 51.495 -24 52 C-27.29672044 61.62353036 -26.35161301 72.85244964 -26.4140625 82.88671875 C-26.43280233 84.79914662 -26.45237777 86.71156646 -26.4727478 88.62397766 C-26.52377791 93.62315104 -26.56355832 98.62235114 -26.60089111 103.62164307 C-26.6411147 108.73675996 -26.69212272 113.85176851 -26.7421875 118.96679688 C-26.83860143 128.97779553 -26.92211678 138.98884002 -27 149 C-37.89 149 -48.78 149 -60 149 C-61.05374167 145.83877499 -61.12577372 143.61936342 -61.12698364 140.29978943 C-61.13121338 138.51834534 -61.13121338 138.51834534 -61.13552856 136.70091248 C-61.13350433 135.39638626 -61.1314801 134.09186005 -61.12939453 132.74780273 C-61.1307494 131.3614599 -61.13252982 129.97511743 -61.13470459 128.58877563 C-61.13926829 124.82240123 -61.13749383 121.05605418 -61.1343255 117.28967929 C-61.13179694 113.35214078 -61.13414078 109.41460464 -61.13571167 105.47706604 C-61.13753169 98.86532164 -61.1351312 92.25358841 -61.13037109 85.6418457 C-61.12492655 77.99092033 -61.1266932 70.3400216 -61.1321975 62.68909687 C-61.13673069 56.12599981 -61.13737823 49.56291078 -61.13475883 42.99981266 C-61.13319749 39.07733381 -61.13299845 35.1548675 -61.13629532 31.23238945 C-61.13917709 27.54622648 -61.13719267 23.86009798 -61.13140106 20.17393875 C-61.12944117 18.17047931 -61.13242462 16.16701696 -61.13552856 14.16355896 C-61.13270874 12.97874939 -61.12988892 11.79393982 -61.12698364 10.57322693 C-61.12660662 9.53918448 -61.12622959 8.50514204 -61.12584114 7.43976498 C-61 5 -61 5 -60 3 C-49.11 3 -38.22 3 -27 3 C-26.505 8.445 -26.505 8.445 -26 14 C-25.01 13.01 -24.02 12.02 -23 11 C-22.34 11 -21.68 11 -21 11 C-21 10.34 -21 9.68 -21 9 C-19.68 9 -18.36 9 -17 9 C-17 8.34 -17 7.68 -17 7 C-15.68 7 -14.36 7 -13 7 C-13 6.34 -13 5.68 -13 5 C-11.39743892 4.49487756 -9.79288208 3.99608373 -8.1875 3.5 C-7.29417969 3.2215625 -6.40085937 2.943125 -5.48046875 2.65625 C-3 2 -3 2 0 2 C0 1.34 0 0.68 0 0 Z M73 64 C73 91.06 73 118.12 73 146 C73.33 146 73.66 146 74 146 C74 118.94 74 91.88 74 64 C73.67 64 73.34 64 73 64 Z " fill="#2C30F9" transform="translate(858,379)"/>
<path d="M0 0 C9.57 0 19.14 0 29 0 C29 0.66 29 1.32 29 2 C29.59167969 2.04898437 30.18335938 2.09796875 30.79296875 2.1484375 C35.19104472 2.56456867 38.96928897 3.04965595 43 5 C43 5.66 43 6.32 43 7 C44.32 7 45.64 7 47 7 C47 7.66 47 8.32 47 9 C47.721875 8.896875 48.44375 8.79375 49.1875 8.6875 C53.1573703 9.1285967 54.50403068 11.00483682 57 14 C57 14.66 57 15.32 57 16 C57.66 16 58.32 16 59 16 C59 16.66 59 17.32 59 18 C59.66 18 60.32 18 61 18 C61 13.05 61 8.1 61 3 C72.55 3 84.1 3 96 3 C97.32043638 5.64087276 97.12891791 7.61466399 97.13371277 10.57322693 C97.14011024 12.35044128 97.14011024 12.35044128 97.14663696 14.16355896 C97.14618378 15.47010941 97.14573059 16.77665985 97.14526367 18.12280273 C97.14825456 19.50737601 97.15165693 20.89194844 97.15544128 22.27651978 C97.16429237 26.04301602 97.16661985 29.80948957 97.16725707 33.57599521 C97.16820532 36.71727015 97.17188262 39.85853977 97.17542917 42.99981266 C97.18357785 50.40913891 97.18601301 57.81845299 97.18530273 65.2277832 C97.18470174 72.87812012 97.19525683 80.52838656 97.2110464 88.17870563 C97.22410906 94.74094998 97.22948717 101.30317125 97.22884732 107.86542851 C97.22859197 111.78741592 97.23146365 115.70934073 97.24202538 119.63131523 C97.25168504 123.31913638 97.25180029 127.00683479 97.24450874 130.69466019 C97.24295943 132.6967503 97.25132441 134.69884034 97.25994873 136.70091248 C97.25575424 137.88854187 97.25155975 139.07617126 97.24723816 140.29978943 C97.24778293 141.3342089 97.24832769 142.36862837 97.24888897 143.43439388 C97 146 97 146 95 149 C92.37537756 149.26697888 89.98934067 149.34832984 87.3671875 149.29296875 C86.61535187 149.28872391 85.86351624 149.28447906 85.08889771 149.28010559 C82.68390315 149.2632917 80.27974191 149.22563624 77.875 149.1875 C76.24610584 149.17245659 74.61719856 149.15876758 72.98828125 149.14648438 C68.991607 149.11592876 64.99673784 149.05721735 61 149 C61 143.72 61 138.44 61 133 C60.34 133 59.68 133 59 133 C59 133.99 59 134.98 59 136 C58.01 136 57.02 136 56 136 C56 136.66 56 137.32 56 138 C49.375 141.875 49.375 141.875 46 143 C45.67 143.66 45.34 144.32 45 145 C43.68 145 42.36 145 41 145 C41 145.66 41 146.32 41 147 C39.02 147 37.04 147 35 147 C35 147.66 35 148.32 35 149 C31.7 149 28.4 149 25 149 C25 149.66 25 150.32 25 151 C18.07 151 11.14 151 4 151 C4 150.34 4 149.68 4 149 C1.03 149 -1.94 149 -5 149 C-5 148.34 -5 147.68 -5 147 C-7.31 147 -9.62 147 -12 147 C-12 146.34 -12 145.68 -12 145 C-13.32 145 -14.64 145 -16 145 C-16.99 144.01 -16.99 144.01 -18 143 C-19.27387753 142.13971907 -20.56790509 141.30891911 -21.875 140.5 C-22.55304688 140.0771875 -23.23109375 139.654375 -23.9296875 139.21875 C-25.91537889 138.04981469 -27.92684306 137.00404013 -30 136 C-30 135.01 -30 134.02 -30 133 C-30.66 133 -31.32 133 -32 133 C-32 132.34 -32 131.68 -32 131 C-32.66 131 -33.32 131 -34 131 C-34 130.34 -34 129.68 -34 129 C-34.99 128.67 -35.98 128.34 -37 128 C-37 127.34 -37 126.68 -37 126 C-37.66 126 -38.32 126 -39 126 C-39 125.01 -39 124.02 -39 123 C-39.66 123 -40.32 123 -41 123 C-41 122.01 -41 121.02 -41 120 C-41.66 120 -42.32 120 -43 120 C-46 114.25 -46 114.25 -46 112 C-46.66 112 -47.32 112 -48 112 C-48 110.35 -48 108.7 -48 107 C-48.66 107 -49.32 107 -50 107 C-50 104.69 -50 102.38 -50 100 C-50.66 100 -51.32 100 -52 100 C-52 96.37 -52 92.74 -52 89 C-52.66 89 -53.32 89 -54 89 C-54 79.43 -54 69.86 -54 60 C-53.34 60 -52.68 60 -52 60 C-52 56.37 -52 52.74 -52 49 C-51.34 49 -50.68 49 -50 49 C-50 47.02 -50 45.04 -50 43 C-49.34 43 -48.68 43 -48 43 C-48.0825 42.278125 -48.165 41.55625 -48.25 40.8125 C-47.92106648 37.11199786 -46.38704987 35.79625841 -44 33 C-42.95548562 31.02288349 -41.94301862 29.02749004 -41 27 C-40.34 27 -39.68 27 -39 27 C-38.67 26.01 -38.34 25.02 -38 24 C-37.67 23.34 -37.34 22.68 -37 22 C-36.34 22 -35.68 22 -35 22 C-35 21.34 -35 20.68 -35 20 C-34.34 20 -33.68 20 -33 20 C-33 19.34 -33 18.68 -33 18 C-32.01 18 -31.02 18 -30 18 C-29.7525 17.401875 -29.505 16.80375 -29.25 16.1875 C-27.81927475 13.68373081 -26.4308418 12.51927612 -24 11 C-23.34 11 -22.68 11 -22 11 C-22 10.34 -22 9.68 -22 9 C-20.68 9 -19.36 9 -18 9 C-18 8.34 -18 7.68 -18 7 C-16.68 7 -15.36 7 -14 7 C-14 6.34 -14 5.68 -14 5 C-9.38 3.68 -4.76 2.36 0 1 C0 0.67 0 0.34 0 0 Z M16 30 C16 30.33 16 30.66 16 31 C11.545 31.495 11.545 31.495 7 32 C7 32.66 7 33.32 7 34 C5.35 34 3.7 34 2 34 C2 34.66 2 35.32 2 36 C1.01 36 0.02 36 -1 36 C-1 36.66 -1 37.32 -1 38 C-2.32 38.33 -3.64 38.66 -5 39 C-5 39.66 -5 40.32 -5 41 C-5.66 41 -6.32 41 -7 41 C-7 41.66 -7 42.32 -7 43 C-7.66 43 -8.32 43 -9 43 C-11.39820305 45.63684747 -11.39820305 45.63684747 -12 49 C-12.66 49 -13.32 49 -14 49 C-16.32590854 52.63423209 -16.16265833 55.77088331 -16 60 C-16.66 60 -17.32 60 -18 60 C-19.07238023 75.01517998 -19.07238023 75.01517998 -18 90 C-17.34 90 -16.68 90 -16 90 C-16 91.98 -16 93.96 -16 96 C-15.34 96 -14.68 96 -14 96 C-14 97.32 -14 98.64 -14 100 C-13.34 100 -12.68 100 -12 100 C-11.84144531 100.87398437 -11.84144531 100.87398437 -11.6796875 101.765625 C-10.90313755 104.31842139 -9.85698233 105.73366236 -8.125 107.75 C-7.61195313 108.36359375 -7.09890625 108.9771875 -6.5703125 109.609375 C-4.9752713 111.3314878 -4.9752713 111.3314878 -2 111 C-2 111.66 -2 112.32 -2 113 C-1.34 113 -0.68 113 0 113 C0 113.66 0 114.32 0 115 C6.94615583 119.76307828 12.74023632 120.33944695 20.9375 120.3125 C21.91396484 120.32861328 22.89042969 120.34472656 23.89648438 120.36132812 C29.39997348 120.3650593 33.22740451 120.02581092 38 117 C38.69867187 116.61457031 39.39734375 116.22914063 40.1171875 115.83203125 C40.69726562 115.49558594 41.27734375 115.15914063 41.875 114.8125 C42.90625 114.214375 43.9375 113.61625 45 113 C45 112.34 45 111.68 45 111 C45.66 111 46.32 111 47 111 C47 110.34 47 109.68 47 109 C47.99 109 48.98 109 50 109 C50.66 107.35 51.32 105.7 52 104 C52.66 104 53.32 104 54 104 C54 102.68 54 101.36 54 100 C54.66 100 55.32 100 56 100 C56 98.35 56 96.7 56 95 C56.66 95 57.32 95 58 95 C60.9916441 88.351902 61.45955486 82.74353274 61.375 75.5 C61.38660156 74.50613281 61.39820313 73.51226562 61.41015625 72.48828125 C61.38560392 66.29291048 60.5450188 61.65559732 58 56 C57.34 56 56.68 56 56 56 C56 54.35 56 52.7 56 51 C55.34 51 54.68 51 54 51 C54 49.68 54 48.36 54 47 C53.34 47 52.68 47 52 47 C52 46.34 52 45.68 52 45 C51.34 45 50.68 45 50 45 C49.5978125 44.1028125 49.5978125 44.1028125 49.1875 43.1875 C48.00082594 41.00152146 46.90400887 39.58667406 45 38 C44.34 38 43.68 38 43 38 C43 37.34 43 36.68 43 36 C41.68 36 40.36 36 39 36 C39 35.34 39 34.68 39 34 C36.03821227 32.32889958 33.62928808 31.67317248 30.25 31.375 C29.45078125 31.30023438 28.6515625 31.22546875 27.828125 31.1484375 C27.22484375 31.09945313 26.6215625 31.05046875 26 31 C26 30.67 26 30.34 26 30 C22.7 30 19.4 30 16 30 Z " fill="#2D30F9" transform="translate(500,379)"/>
<path d="M0 0 C7.92 0 15.84 0 24 0 C24 0.66 24 1.32 24 2 C25.08667969 2.07347656 25.08667969 2.07347656 26.1953125 2.1484375 C31.41458867 2.55206152 36.09813658 3.01275807 41 5 C41 5.66 41 6.32 41 7 C42.65 7 44.3 7 46 7 C46 7.66 46 8.32 46 9 C47.32 9 48.64 9 50 9 C50 9.66 50 10.32 50 11 C50.680625 11.226875 51.36125 11.45375 52.0625 11.6875 C58.36347327 14.50282848 62.93436831 18.45595678 67 24 C67 24.66 67 25.32 67 26 C67.66 26 68.32 26 69 26 C69 26.99 69 27.98 69 29 C69.66 29 70.32 29 71 29 C71.64995297 30.41478135 72.29478722 31.83191487 72.9375 33.25 C73.29714844 34.03890625 73.65679688 34.8278125 74.02734375 35.640625 C74.90033279 37.75823698 75.51338508 39.76669362 76 42 C76.66 42 77.32 42 78 42 C78.33 43.98 78.66 45.96 79 48 C79.33 48 79.66 48 80 48 C80 52.95 80 57.9 80 63 C80.66 63 81.32 63 82 63 C82 67.62 82 72.24 82 77 C81.67 77 81.34 77 81 77 C80.67 79.64 80.34 82.28 80 85 C42.05 85 4.1 85 -35 85 C-34.67 87.64 -34.34 90.28 -34 93 C-33.67 93 -33.34 93 -33 93 C-33 95.64 -33 98.28 -33 101 C-32.34 101 -31.68 101 -31 101 C-31 102.32 -31 103.64 -31 105 C-30.34 105 -29.68 105 -29 105 C-29 106.32 -29 107.64 -29 109 C-28.34 109 -27.68 109 -27 109 C-25.375 110.3125 -25.375 110.3125 -24 112 C-24 112.99 -24 113.98 -24 115 C-23.4225 115.268125 -22.845 115.53625 -22.25 115.8125 C-19.94449957 117.02929189 -17.97943808 118.30333879 -16 120 C-16 120.66 -16 121.32 -16 122 C-15.01 122 -14.02 122 -13 122 C-13 122.66 -13 123.32 -13 124 C-11.35 124 -9.7 124 -8 124 C-8 124.66 -8 125.32 -8 126 C-7.030625 126.144375 -6.06125 126.28875 -5.0625 126.4375 C-2 127 -2 127 -1 128 C3.4524159 128.25419185 7.91619131 128.18522973 12.375 128.1875 C13.633125 128.19974609 14.89125 128.21199219 16.1875 128.22460938 C17.39148437 128.22654297 18.59546875 128.22847656 19.8359375 128.23046875 C21.49955322 128.23663208 21.49955322 128.23663208 23.19677734 128.24291992 C26.2084876 128.20824911 26.2084876 128.20824911 29 126 C31.6875 125.875 31.6875 125.875 34 126 C34 125.34 34 124.68 34 124 C35.32 124 36.64 124 38 124 C38 123.34 38 122.68 38 122 C38.99 122 39.98 122 41 122 C41 121.34 41 120.68 41 120 C41.99 120 42.98 120 44 120 C44 119.34 44 118.68 44 118 C44.66 118 45.32 118 46 118 C46.495 116.515 46.495 116.515 47 115 C48 112 48 112 50 110.125 C52.27060644 107.71248065 52.64008575 106.23922825 53 103 C53.66 103 54.32 103 55 103 C55 101.35 55 99.7 55 98 C62.59 98 70.18 98 78 98 C79.35015859 102.05047576 78.62084998 104.7920168 78 109 C77.34 109 76.68 109 76 109 C75.01 111.97 74.02 114.94 73 118 C72.34 118 71.68 118 71 118 C71 119.32 71 120.64 71 122 C70.34 122 69.68 122 69 122 C69 122.99 69 123.98 69 125 C68.34 125 67.68 125 67 125 C66.72929688 125.58265625 66.45859375 126.1653125 66.1796875 126.765625 C65.00293725 128.99443673 63.72659854 130.8081655 62.125 132.75 C61.38636719 133.67039062 61.38636719 133.67039062 60.6328125 134.609375 C59 136 59 136 55 136 C55 136.66 55 137.32 55 138 C54.37351562 138.33773437 53.74703125 138.67546875 53.1015625 139.0234375 C52.28429688 139.46945312 51.46703125 139.91546875 50.625 140.375 C49.81289062 140.81585937 49.00078125 141.25671875 48.1640625 141.7109375 C45.89185698 142.9443893 45.89185698 142.9443893 44 145 C41.375 145.125 41.375 145.125 39 145 C39 145.66 39 146.32 39 147 C36.03 147 33.06 147 30 147 C30 147.66 30 148.32 30 149 C18.78 149 7.56 149 -4 149 C-4 148.34 -4 147.68 -4 147 C-6.97 147 -9.94 147 -13 147 C-13 146.34 -13 145.68 -13 145 C-14.65 145 -16.3 145 -18 145 C-18 144.34 -18 143.68 -18 143 C-19.11375 142.814375 -19.11375 142.814375 -20.25 142.625 C-22.80141485 142.04513299 -24.7267573 141.26291261 -27 140 C-27 139.34 -27 138.68 -27 138 C-28.32 138 -29.64 138 -31 138 C-31 137.34 -31 136.68 -31 136 C-31.66 136 -32.32 136 -33 136 C-35 134 -35 134 -36 131 C-36.66 131 -37.32 131 -38 131 C-38 130.34 -38 129.68 -38 129 C-38.8971875 128.62875 -38.8971875 128.62875 -39.8125 128.25 C-42.31626919 126.81927475 -43.48072388 125.4308418 -45 123 C-45 122.34 -45 121.68 -45 121 C-45.66 121 -46.32 121 -47 121 C-47 120.01 -47 119.02 -47 118 C-47.66 118 -48.32 118 -49 118 C-49 116.68 -49 115.36 -49 114 C-49.66 114 -50.32 114 -51 114 C-51.19335938 113.36191406 -51.38671875 112.72382813 -51.5859375 112.06640625 C-51.84632812 111.24011719 -52.10671875 110.41382813 -52.375 109.5625 C-52.63023438 108.73878906 -52.88546875 107.91507812 -53.1484375 107.06640625 C-53.80882227 104.82201984 -53.80882227 104.82201984 -56 104 C-56.40729228 101.67843403 -56.74438677 99.3431213 -57 97 C-57.33 97 -57.66 97 -58 97 C-58 82.81 -58 68.62 -58 54 C-57.67 54 -57.34 54 -57 54 C-56.87625 52.700625 -56.7525 51.40125 -56.625 50.0625 C-56.4140625 47.84765625 -56.4140625 47.84765625 -56 46 C-55.01 45.505 -55.01 45.505 -54 45 C-53.09274566 42.88672575 -53.09274566 42.88672575 -52.375 40.4375 C-52.11460938 39.61121094 -51.85421875 38.78492188 -51.5859375 37.93359375 C-51.39257812 37.29550781 -51.19921875 36.65742188 -51 36 C-50.34 36 -49.68 36 -49 36 C-49 34.68 -49 33.36 -49 32 C-48.34 32 -47.68 32 -47 32 C-47 31.01 -47 30.02 -47 29 C-46.34 29 -45.68 29 -45 29 C-44.67 27.68 -44.34 26.36 -44 25 C-43.34 25 -42.68 25 -42 25 C-42 24.34 -42 23.68 -42 23 C-41.34 23 -40.68 23 -40 23 C-39.34 21.35 -38.68 19.7 -38 18 C-37.01 18 -36.02 18 -35 18 C-35 17.34 -35 16.68 -35 16 C-34.34 16 -33.68 16 -33 16 C-33 15.34 -33 14.68 -33 14 C-31.68 13.67 -30.36 13.34 -29 13 C-29 12.34 -29 11.68 -29 11 C-28.01 11 -27.02 11 -26 11 C-26 10.34 -26 9.68 -26 9 C-24.68 9 -23.36 9 -22 9 C-22 8.34 -22 7.68 -22 7 C-20.35 7 -18.7 7 -17 7 C-17 6.34 -17 5.68 -17 5 C-11.46458058 2.90551698 -5.81235021 1.97217245 0 1 C0 0.67 0 0.34 0 0 Z M2 21 C2 21.66 2 22.32 2 23 C-0.97 23 -3.94 23 -7 23 C-7 23.66 -7 24.32 -7 25 C-8.32 25 -9.64 25 -11 25 C-11 25.66 -11 26.32 -11 27 C-11.969375 27.268125 -12.93875 27.53625 -13.9375 27.8125 C-14.948125 28.204375 -15.95875 28.59625 -17 29 C-17.33 29.99 -17.66 30.98 -18 32 C-18.66 32 -19.32 32 -20 32 C-20 32.66 -20 33.32 -20 34 C-21.98 34.99 -21.98 34.99 -24 36 C-24 36.66 -24 37.32 -24 38 C-24.66 38 -25.32 38 -26 38 C-26 38.99 -26 39.98 -26 41 C-26.66 41 -27.32 41 -28 41 C-28.33 42.32 -28.66 43.64 -29 45 C-29.66 45 -30.32 45 -31 45 C-31 46.32 -31 47.64 -31 49 C-31.66 49 -32.32 49 -33 49 C-33 51.64 -33 54.28 -33 57 C-33.66 57 -34.32 57 -35 57 C-35 59.64 -35 62.28 -35 65 C-4.64 65 25.72 65 57 65 C57 60.71 57 56.42 57 52 C56.34 52 55.68 52 55 52 C55.04640625 51.26910156 55.0928125 50.53820312 55.140625 49.78515625 C54.861413 44.25520753 51.3244828 39.55153699 47.8125 35.4375 C46.12439151 33.79286843 46.12439151 33.79286843 44 34 C44 33.34 44 32.68 44 32 C43.34 32 42.68 32 42 32 C41.505 30.515 41.505 30.515 41 29 C35.94700985 25.6087171 35.94700985 25.6087171 30 25 C30 24.34 30 23.68 30 23 C27.03 22.67 24.06 22.34 21 22 C21 21.67 21 21.34 21 21 C14.73 21 8.46 21 2 21 Z " fill="#00009A" transform="translate(1340,379)"/>
<path d="M0 0 C3.81248426 -0.02887236 7.6249407 -0.04675492 11.4375 -0.0625 C12.52611328 -0.07087891 13.61472656 -0.07925781 14.73632812 -0.08789062 C15.77080078 -0.09111328 16.80527344 -0.09433594 17.87109375 -0.09765625 C18.82943115 -0.10289307 19.78776855 -0.10812988 20.77514648 -0.11352539 C23 0 23 0 24 1 C24.0940067 2.96369153 24.11743381 4.93079199 24.11352539 6.89672852 C24.11344986 8.15796036 24.11337433 9.4191922 24.11329651 10.71864319 C24.1081891 12.10539794 24.10297309 13.49215229 24.09765625 14.87890625 C24.09579201 16.28995209 24.09436814 17.70099857 24.09336853 19.11204529 C24.08954379 22.83240535 24.0797139 26.5527266 24.06866455 30.27307129 C24.05844948 34.06680781 24.05387071 37.86055058 24.04882812 41.65429688 C24.03809158 49.10288231 24.0210157 56.55143572 24 64 C24.66 64 25.32 64 26 64 C26 63.34 26 62.68 26 62 C26.804375 61.731875 27.60875 61.46375 28.4375 61.1875 C29.283125 60.795625 30.12875 60.40375 31 60 C31.33 59.01 31.66 58.02 32 57 C32.66 57 33.32 57 34 57 C34 56.34 34 55.68 34 55 C35.32 55 36.64 55 38 55 C38 54.34 38 53.68 38 53 C39.32 53 40.64 53 42 53 C42 52.34 42 51.68 42 51 C46.55491614 48.79600832 51.02906176 48.41153737 56 48 C56 47.34 56 46.68 56 46 C59.95096978 45.95060338 63.9018203 45.91428245 67.85302734 45.89013672 C69.8591136 45.87511893 71.86511324 45.84971019 73.87109375 45.82421875 C75.12792969 45.81777344 76.38476562 45.81132812 77.6796875 45.8046875 C78.84226074 45.79421387 80.00483398 45.78374023 81.20263672 45.77294922 C84 46 84 46 86 48 C89.63253665 49.14357635 93.29741575 50.11137978 97 51 C97 51.66 97 52.32 97 53 C98.32 53 99.64 53 101 53 C101 53.66 101 54.32 101 55 C102.65 55 104.3 55 106 55 C106.226875 55.78375 106.45375 56.5675 106.6875 57.375 C107.74653828 60.2197245 107.74653828 60.2197245 110.5 61 C113 62 113 62 114.3125 64.625 C114.539375 65.40875 114.76625 66.1925 115 67 C115.66 67 116.32 67 117 67 C118.32 69.31 119.64 71.62 121 74 C121.33 74 121.66 74 122 74 C122.33 75.65 122.66 77.3 123 79 C123.33 79 123.66 79 124 79 C124.144375 80.134375 124.28875 81.26875 124.4375 82.4375 C124.61171478 85.80777201 124.61171478 85.80777201 126 87 C127.92900195 93.28436468 128.28071645 99.39809286 128.22705078 105.92602539 C128.22734283 106.87343597 128.22763489 107.82084656 128.22793579 108.79696655 C128.22655359 111.8972929 128.21104503 114.99737241 128.1953125 118.09765625 C128.19157842 120.25955575 128.18873331 122.42145696 128.18673706 124.58335876 C128.17913171 130.25011944 128.15951 135.91677622 128.1373291 141.58349609 C128.11680372 147.37531123 128.10772107 153.16714329 128.09765625 158.95898438 C128.07626103 170.30604238 128.04110431 181.65299626 128 193 C120.74 193 113.48 193 106 193 C105.98018066 190.39706055 105.96036133 187.79412109 105.93994141 185.11230469 C105.87278479 176.47492597 105.79515011 167.83766376 105.71247292 159.20042038 C105.66270409 153.96795001 105.61637357 148.73549795 105.578125 143.50292969 C105.54102543 138.44536768 105.49460127 133.38796654 105.44193649 128.33054352 C105.42352276 126.40905859 105.40836775 124.48753936 105.39665604 122.56600189 C105.33309412 112.49036995 104.99452594 102.91434391 103 93 C103 92.34 103 91.68 103 91 C102.34 91 101.68 91 101 91 C101 89.35 101 87.7 101 86 C100.34 86 99.68 86 99 86 C99 84.68 99 83.36 99 82 C98.34 82 97.68 82 97 82 C97 81.34 97 80.68 97 80 C96.34 80 95.68 80 95 80 C95 79.34 95 78.68 95 78 C94.34 78 93.68 78 93 78 C92.236875 77.21625 91.47375 76.4325 90.6875 75.625 C88.10184324 73.09947479 86.39158318 72.06592614 83 71 C83 70.34 83 69.68 83 69 C80.36 69 77.72 69 75 69 C75 68.67 75 68.34 75 68 C68.4 67.67 61.8 67.34 55 67 C55 67.66 55 68.32 55 69 C52.36 69 49.72 69 47 69 C47 69.66 47 70.32 47 71 C46.38511719 71.31453125 45.77023437 71.6290625 45.13671875 71.953125 C44.32847656 72.38109375 43.52023437 72.8090625 42.6875 73.25 C41.88699219 73.66765625 41.08648438 74.0853125 40.26171875 74.515625 C37.86545309 76.08830367 36.66992834 77.70813353 35 80 C34.34 80 33.68 80 33 80 C33 80.66 33 81.32 33 82 C32.34 82 31.68 82 31 82 C31 83.32 31 84.64 31 86 C30.34 86 29.68 86 29 86 C29 87.32 29 88.64 29 90 C28.34 90 27.68 90 27 90 C27 92.31 27 94.62 27 97 C26.01 97.495 26.01 97.495 25 98 C24.98969254 99.16066986 24.97938507 100.32133972 24.96876526 101.5171814 C24.87116317 112.43599185 24.76844181 123.35474362 24.66066074 134.27345848 C24.60541047 139.8873635 24.55198711 145.50127371 24.50268555 151.11523438 C24.45507304 156.52930983 24.40273138 161.9433205 24.34705925 167.35731888 C24.32662157 169.42663594 24.30791086 171.49597078 24.29092598 173.56531906 C24.26691325 176.45555827 24.23685444 179.3456743 24.20532227 182.23583984 C24.1995668 183.09826797 24.19381134 183.96069611 24.18788147 184.84925842 C24.11405216 190.77189568 24.11405216 190.77189568 23 193 C19.35418313 193.02887512 15.70839537 193.04675585 12.0625 193.0625 C11.02158203 193.07087891 9.98066406 193.07925781 8.90820312 193.08789062 C7.91884766 193.09111328 6.92949219 193.09433594 5.91015625 193.09765625 C4.99371338 193.10289307 4.07727051 193.10812988 3.13305664 193.11352539 C1 193 1 193 0 192 C-0.09771507 189.52108029 -0.12995957 187.07005223 -0.12025452 184.59068298 C-0.12110894 183.80578651 -0.12196337 183.02089003 -0.12284368 182.21220881 C-0.12450087 179.56194141 -0.11897324 176.91173625 -0.11352539 174.26147461 C-0.11324354 172.36972556 -0.1134012 170.4779764 -0.1139679 168.58622742 C-0.11425597 163.4335489 -0.10835765 158.28089345 -0.10139394 153.12822032 C-0.09516204 147.74967104 -0.09455673 142.3711213 -0.09336853 136.99256897 C-0.09025473 126.79988176 -0.08204069 116.60720521 -0.07201904 106.41452271 C-0.06085941 94.81375432 -0.05534783 83.21298543 -0.05032361 71.61221302 C-0.03985811 47.74146942 -0.02225773 23.87073531 0 0 Z M23 64 C24 67 24 67 24 67 Z " fill="#00009C" transform="translate(1599,333)"/>
<path d="M0 0 C4.27077656 -0.05794812 8.54145236 -0.09357874 12.8125 -0.125 C14.02744141 -0.14175781 15.24238281 -0.15851563 16.49414062 -0.17578125 C17.65751953 -0.18222656 18.82089844 -0.18867188 20.01953125 -0.1953125 C21.62985229 -0.21102295 21.62985229 -0.21102295 23.27270508 -0.22705078 C26 0 26 0 29 2 C30.9726883 2.25871322 32.94640309 2.51361307 34.92578125 2.71484375 C37.75732059 3.10411375 40.3315947 3.99934801 43 5 C43 5.66 43 6.32 43 7 C44.65 7 46.3 7 48 7 C48 7.66 48 8.32 48 9 C49.65 9 51.3 9 53 9 C53.2475 9.804375 53.495 10.60875 53.75 11.4375 C54.1625 12.283125 54.575 13.12875 55 14 C56.32944391 14.34852229 57.66344949 14.67981004 59 15 C60.88671875 16.26953125 60.88671875 16.26953125 62.6875 17.8125 C63.28949219 18.31394531 63.89148437 18.81539063 64.51171875 19.33203125 C66.18775622 21.21042495 66.6002351 22.54277844 67 25 C67.66 25 68.32 25 69 25 C69 25.66 69 26.32 69 27 C69.66 27 70.32 27 71 27 C71 27.99 71 28.98 71 30 C71.66 30 72.32 30 73 30 C75.15294651 35.28830549 77.27933894 40.55123997 79 46 C79.33 46 79.66 46 80 46 C80.04241723 48.33294775 80.04092937 50.66702567 80 53 C78.31483046 54.68516954 76.21232212 54.13008019 73.90625 54.1328125 C72.87628906 54.13410156 71.84632813 54.13539063 70.78515625 54.13671875 C69.15900391 54.13091797 69.15900391 54.13091797 67.5 54.125 C66.41589844 54.12886719 65.33179688 54.13273437 64.21484375 54.13671875 C63.18488281 54.13542969 62.15492187 54.13414062 61.09375 54.1328125 C60.14177734 54.13168457 59.18980469 54.13055664 58.20898438 54.12939453 C56 54 56 54 55 53 C54.95907063 50.66702567 54.95758277 48.33294775 55 46 C54.34 46 53.68 46 53 46 C53 44.35 53 42.7 53 41 C52.34 41 51.68 41 51 41 C49.375 39.6875 49.375 39.6875 48 38 C48 37.01 48 36.02 48 35 C47.34 35 46.68 35 46 35 C44.375 33.625 44.375 33.625 43 32 C43 31.34 43 30.68 43 30 C40.66785852 28.79371992 38.50357861 27.8345262 36 27 C36 26.34 36 25.68 36 25 C31.37269289 23.9551242 26.71146122 23.48243721 22 23 C22 22.67 22 22.34 22 22 C16.06 22 10.12 22 4 22 C4 22.33 4 22.66 4 23 C1.03 23 -1.94 23 -5 23 C-5 23.66 -5 24.32 -5 25 C-6.2375 25.45375 -7.475 25.9075 -8.75 26.375 C-11.59245495 27.4384007 -14.32663046 28.55192483 -17 30 C-17 30.66 -17 31.32 -17 32 C-17.66 32 -18.32 32 -19 32 C-19.33 32.99 -19.66 33.98 -20 35 C-20.66 35 -21.32 35 -22 35 C-22 35.99 -22 36.98 -22 38 C-22.66 38 -23.32 38 -24 38 C-24.33 38.99 -24.66 39.98 -25 41 C-25.495 41.639375 -25.99 42.27875 -26.5 42.9375 C-28.01379953 45.01897436 -28.55259682 46.49454218 -29 49 C-29.66 49 -30.32 49 -31 49 C-31 50.98 -31 52.96 -31 55 C-31.66 55 -32.32 55 -33 55 C-33 68.2 -33 81.4 -33 95 C-32.34 95 -31.68 95 -31 95 C-30.731875 96.010625 -30.46375 97.02125 -30.1875 98.0625 C-29.08979261 101.88501297 -27.72221521 105.41205164 -26 109 C-25.01 109.495 -25.01 109.495 -24 110 C-24 110.99 -24 111.98 -24 113 C-23.34 113 -22.68 113 -22 113 C-22 113.99 -22 114.98 -22 116 C-21.34 116 -20.68 116 -20 116 C-20 116.66 -20 117.32 -20 118 C-19.34 118 -18.68 118 -18 118 C-18 118.66 -18 119.32 -18 120 C-17.01 120 -16.02 120 -15 120 C-15 120.66 -15 121.32 -15 122 C-14.01 122 -13.02 122 -12 122 C-12 122.66 -12 123.32 -12 124 C-11.21625 123.95875 -10.4325 123.9175 -9.625 123.875 C-7 124 -7 124 -5 126 C-1.16944402 127.89855067 1.96887683 128.25669133 6.21875 128.265625 C7.98798828 128.26949219 7.98798828 128.26949219 9.79296875 128.2734375 C11.01628906 128.26570312 12.23960938 128.25796875 13.5 128.25 C14.72332031 128.25773438 15.94664063 128.26546875 17.20703125 128.2734375 C18.38652344 128.27085937 19.56601563 128.26828125 20.78125 128.265625 C22.3909668 128.26224121 22.3909668 128.26224121 24.03320312 128.25878906 C27.06866718 127.99401027 29.2297944 127.21816465 32 126 C32.66 126 33.32 126 34 126 C34 125.34 34 124.68 34 124 C35.32 124 36.64 124 38 124 C38 123.34 38 122.68 38 122 C38.99 122 39.98 122 41 122 C41 121.34 41 120.68 41 120 C41.99 120 42.98 120 44 120 C44 119.34 44 118.68 44 118 C44.66 118 45.32 118 46 118 C46 117.34 46 116.68 46 116 C46.66 116 47.32 116 48 116 C48 115.01 48 114.02 48 113 C48.66 113 49.32 113 50 113 C50.99 110.03 51.98 107.06 53 104 C53.66 104 54.32 104 55 104 C55 102.02 55 100.04 55 98 C63.25 98 71.5 98 80 98 C80 99.98 80 101.96 80 104 C79.34 104 78.68 104 78 104 C78.0825 104.86625 78.165 105.7325 78.25 106.625 C77.94146486 110.79022433 76.40374238 112.6493288 74 116 C73.23060319 118.22602615 73.23060319 118.22602615 73 120 C72.34 120 71.68 120 71 120 C71 120.99 71 121.98 71 123 C70.34 123 69.68 123 69 123 C68.690625 123.61875 68.38125 124.2375 68.0625 124.875 C67.375 126.25 66.6875 127.625 66 129 C65.34 129 64.68 129 64 129 C64 129.66 64 130.32 64 131 C63.34 131 62.68 131 62 131 C62 131.66 62 132.32 62 133 C60.6875 134.625 60.6875 134.625 59 136 C58.01 136 57.02 136 56 136 C56 136.66 56 137.32 56 138 C55.01 138 54.02 138 53 138 C53 138.66 53 139.32 53 140 C51.8553125 140.4021875 51.8553125 140.4021875 50.6875 140.8125 C48.00893218 141.79264168 48.00893218 141.79264168 46.5 143.5625 C44.49293911 145.48593335 42.70332474 145.63468585 40 146 C40 146.33 40 146.66 40 147 C37.03 147 34.06 147 31 147 C31 147.66 31 148.32 31 149 C19.45 149 7.9 149 -4 149 C-4 148.34 -4 147.68 -4 147 C-6.97 147 -9.94 147 -13 147 C-13 146.67 -13 146.34 -13 146 C-14.65 145.67 -16.3 145.34 -18 145 C-18 144.34 -18 143.68 -18 143 C-19.32 142.67 -20.64 142.34 -22 142 C-22 141.34 -22 140.68 -22 140 C-23.65 140 -25.3 140 -27 140 C-27 139.34 -27 138.68 -27 138 C-27.66 138 -28.32 138 -29 138 C-29 137.34 -29 136.68 -29 136 C-29.556875 135.9175 -30.11375 135.835 -30.6875 135.75 C-33.73677919 134.76104459 -35.65189963 133.15242534 -38 131 C-38 130.34 -38 129.68 -38 129 C-38.66 129 -39.32 129 -40 129 C-41.91847864 126.12228205 -43.50079488 123.11373372 -45 120 C-45.66 120 -46.32 120 -47 120 C-47 118.68 -47 117.36 -47 116 C-47.66 116 -48.32 116 -49 116 C-49 114.68 -49 113.36 -49 112 C-49.66 112 -50.32 112 -51 112 C-51.12375 111.195625 -51.2475 110.39125 -51.375 109.5625 C-51.58125 108.716875 -51.7875 107.87125 -52 107 C-52.66 106.67 -53.32 106.34 -54 106 C-54.625 102.9375 -54.625 102.9375 -55 100 C-55.33 100 -55.66 100 -56 100 C-56.33 96.04 -56.66 92.08 -57 88 C-57.33 88 -57.66 88 -58 88 C-58 79.42 -58 70.84 -58 62 C-57.67 62 -57.34 62 -57 62 C-56.67 58.37 -56.34 54.74 -56 51 C-55.34 51 -54.68 51 -54 51 C-54.04125 50.05125 -54.0825 49.1025 -54.125 48.125 C-54 45 -54 45 -52 43 C-51.40165446 41.47943382 -50.86493344 39.93387912 -50.375 38.375 C-50.11460938 37.55773437 -49.85421875 36.74046875 -49.5859375 35.8984375 C-49.39257812 35.27195312 -49.19921875 34.64546875 -49 34 C-48.34 34 -47.68 34 -47 34 C-47 33.01 -47 32.02 -47 31 C-46.34 31 -45.68 31 -45 31 C-44.67 29.68 -44.34 28.36 -44 27 C-43.34 27 -42.68 27 -42 27 C-41.34 25.35 -40.68 23.7 -40 22 C-39.34 22 -38.68 22 -38 22 C-38 21.34 -38 20.68 -38 20 C-37.34 20 -36.68 20 -36 20 C-36 19.34 -36 18.68 -36 18 C-35.34 18 -34.68 18 -34 18 C-34 17.34 -34 16.68 -34 16 C-32.5390625 14.7109375 -32.5390625 14.7109375 -30.625 13.375 C-29.99851562 12.92898438 -29.37203125 12.48296875 -28.7265625 12.0234375 C-27 11 -27 11 -25 11 C-25 10.34 -25 9.68 -25 9 C-21.86501708 7.14223235 -19.62528568 6.79859524 -16 7 C-16 6.34 -16 5.68 -16 5 C-10.76390013 3.07091057 -5.46864457 2.01591421 0 1 C0 0.67 0 0.34 0 0 Z M-35 69 C-35 72.96 -35 76.92 -35 81 C-34.67 81 -34.34 81 -34 81 C-34 77.04 -34 73.08 -34 69 C-34.33 69 -34.66 69 -35 69 Z " fill="#00009B" transform="translate(1495,379)"/>
<path d="M0 0 C0.89137382 0.00092179 1.78274763 0.00184359 2.70113277 0.00279331 C3.72062008 0.00141865 4.74010738 0.00004398 5.79048824 -0.00137234 C6.91833233 0.00222294 8.04617641 0.00581821 9.20819759 0.00952244 C10.38852566 0.00937641 11.56885372 0.00923038 12.7849493 0.00907993 C16.03067141 0.00965888 19.27635088 0.01468796 22.52206445 0.02165389 C25.91068065 0.02788821 29.29929761 0.02849129 32.68791866 0.0296793 C39.10880837 0.03279238 45.52968114 0.04100546 51.95056337 0.05102879 C59.25878857 0.06219063 66.56701457 0.06770055 73.87524617 0.07272422 C88.91259058 0.0831881 103.94991813 0.10098759 118.98725033 0.12304783 C118.98725033 6.72304783 118.98725033 13.32304783 118.98725033 20.12304783 C102.48725033 20.12304783 85.98725033 20.12304783 68.98725033 20.12304783 C68.98725033 74.24304783 68.98725033 128.36304783 68.98725033 184.12304783 C61.39725033 184.12304783 53.80725033 184.12304783 45.98725033 184.12304783 C45.98725033 130.00304783 45.98725033 75.88304783 45.98725033 20.12304783 C29.81725033 20.12304783 13.64725033 20.12304783 -3.01274967 20.12304783 C-3.01274967 0.18418202 -3.01274967 0.18418202 0 0 Z " fill="#00009B" transform="translate(1150.012749671936,341.8769521713257)"/>
<path d="M0 0 C4.80548597 -0.04936883 9.61082494 -0.08570443 14.41650391 -0.10986328 C16.05194672 -0.11993254 17.68737149 -0.13358881 19.32275391 -0.15087891 C21.6709437 -0.17508705 24.01889588 -0.18647357 26.3671875 -0.1953125 C27.10057343 -0.20563507 27.83395935 -0.21595764 28.58956909 -0.22659302 C30.39462697 -0.22699368 32.1990783 -0.12212755 34 0 C36.65210289 2.65210289 36.25126653 3.86963334 36.25396729 7.57322693 C36.25960693 8.7580365 36.26524658 9.94284607 36.27105713 11.16355896 C36.26700867 12.47010941 36.26296021 13.77665985 36.25878906 15.12280273 C36.26149799 16.50737696 36.26505837 17.89194974 36.26940918 19.27651978 C36.27854803 23.04304734 36.27498259 26.80946567 36.26865101 30.57599521 C36.26359772 34.51307396 36.26828068 38.45014318 36.27142334 42.38722229 C36.27506538 49.00075972 36.27025812 55.61425254 36.26074219 62.2277832 C36.24986166 69.87812709 36.25337931 77.52836434 36.264395 85.17870563 C36.27346648 91.74095589 36.2747537 98.30317401 36.26951766 104.86542851 C36.26639661 108.78740853 36.2659922 112.70933841 36.27259064 116.63131523 C36.27836131 120.31914772 36.27437238 124.00684259 36.26280212 127.69466019 C36.25888886 129.69674235 36.26484389 131.69883613 36.27105713 133.70091248 C36.26259766 135.48235657 36.26259766 135.48235657 36.25396729 137.29978943 C36.25321323 138.3342089 36.25245918 139.36862837 36.25168228 140.43439388 C36 143 36 143 34 146 C31.45778479 146.27963793 29.16215473 146.37241506 26.62109375 146.328125 C25.89382584 146.32625183 25.16655792 146.32437866 24.41725159 146.32244873 C22.87976498 146.31572423 21.34229559 146.30180171 19.80493164 146.28125 C17.44336166 146.25007737 15.08245848 146.24027877 12.72070312 146.234375 C11.22915848 146.22520593 9.73762065 146.21483047 8.24609375 146.203125 C7.53569443 146.19887512 6.8252951 146.19462524 6.09336853 146.19024658 C1.11716113 146.11716113 1.11716113 146.11716113 0 145 C-0.09652596 143.12705216 -0.12187266 141.25041756 -0.12025452 139.37498474 C-0.12162918 138.15355774 -0.12300385 136.93213074 -0.12442017 135.6736908 C-0.12088056 134.30776953 -0.11724574 132.94184852 -0.11352539 131.57592773 C-0.11324352 130.14722699 -0.11340124 128.7185261 -0.1139679 127.28982544 C-0.11425589 123.39950028 -0.10835887 119.50920569 -0.10139394 115.61888766 C-0.0951607 111.55761795 -0.09455663 107.49634761 -0.09336853 103.43507385 C-0.09025512 95.73921067 -0.08204161 88.04336162 -0.07201904 80.34750468 C-0.06085819 71.58827886 -0.05534753 62.82905239 -0.05032361 54.06982124 C-0.03985901 36.04653947 -0.02225939 18.02327087 0 0 Z " fill="#2E31FA" transform="translate(1061,382)"/>
<path d="M0 0 C6.27 0 12.54 0 19 0 C19 0.66 19 1.32 19 2 C20.32 2.33 21.64 2.66 23 3 C23 3.66 23 4.32 23 5 C23.66 5 24.32 5 25 5 C25 5.66 25 6.32 25 7 C25.99 7 26.98 7 28 7 C28 8.32 28 9.64 28 11 C28.66 11 29.32 11 30 11 C30 17.27 30 23.54 30 30 C29.34 30 28.68 30 28 30 C28 30.99 28 31.98 28 33 C26.625 34.6875 26.625 34.6875 25 36 C24.34 36 23.68 36 23 36 C23 36.66 23 37.32 23 38 C21.21584539 39.98239401 19.71411536 40.89379177 17.06298828 41.28808594 C14.72235604 41.40467904 12.40569201 41.40887747 10.0625 41.375 C9.26392578 41.38660156 8.46535156 41.39820313 7.64257812 41.41015625 C2.98982216 41.38702739 -0.26609649 41.09272816 -4 38 C-4 37.34 -4 36.68 -4 36 C-4.66 36 -5.32 36 -6 36 C-6 35.34 -6 34.68 -6 34 C-6.66 34 -7.32 34 -8 34 C-8 33.01 -8 32.02 -8 31 C-8.66 31 -9.32 31 -10 31 C-11.79629042 22.24308419 -11.29384343 15.29342722 -8 7 C-7.34 7 -6.68 7 -6 7 C-6 6.34 -6 5.68 -6 5 C-2.53846154 2 -2.53846154 2 0 2 C0 1.34 0 0.68 0 0 Z " fill="#2D30F9" transform="translate(1069,326)"/>
<path d="M0 0 C3 1 3 1 3 1 Z " fill="#353EFF" transform="translate(1077,324)"/>
<path d="" fill="#0000A3" transform="translate(0,0)"/>
</svg>
