<?xml version="1.0" encoding="UTF-8"?>
<svg version="1.1" xmlns="http://www.w3.org/2000/svg" width="1667" height="1667">
<path d="M0 0 C550.11 0 1100.22 0 1667 0 C1667 550.11 1667 1100.22 1667 1667 C1116.89 1667 566.78 1667 0 1667 C0 1116.89 0 566.78 0 0 Z " fill="#FEFEFE" transform="translate(0,0)"/>
<path d="M0 0 C2.49966689 0.96262125 3.45144275 2.03377578 5.12109375 4.11547852 C5.68320557 4.80714111 6.24531738 5.49880371 6.82446289 6.21142578 C7.41606201 6.959646 8.00766113 7.70786621 8.6171875 8.47875977 C9.54809204 9.63299438 9.54809204 9.63299438 10.49780273 10.81054688 C12.36174719 13.1284462 14.21100928 15.45722 16.0546875 17.79125977 C16.55484375 18.42386719 17.055 19.05647461 17.5703125 19.70825195 C19.36717913 21.98588135 21.15935864 24.26704809 22.9440918 26.55419922 C26.38911419 30.96631146 29.89619506 35.32475119 33.4296875 39.66625977 C33.96505127 40.32537354 34.50041504 40.9844873 35.05200195 41.66357422 C37.92754122 45.19843999 40.82068361 48.71745225 43.734375 52.22094727 C44.3320166 52.94427246 44.9296582 53.66759766 45.54541016 54.4128418 C46.69307957 55.80132112 47.84616692 57.18534511 49.00537109 58.56420898 C49.52180176 59.19085449 50.03823242 59.8175 50.5703125 60.46313477 C51.02696289 61.01066406 51.48361328 61.55819336 51.95410156 62.12231445 C53.18509393 63.98901006 53.63468705 65.60797131 54.0546875 67.79125977 C53.60778564 68.15251953 53.16088379 68.5137793 52.70043945 68.88598633 C26.50370474 90.11697624 4.99214792 112.42126008 -11.9453125 141.79125977 C-12.3381543 142.4617334 -12.73099609 143.13220703 -13.13574219 143.82299805 C-38.03231048 186.68627143 -46.08269771 239.02244103 -38.9453125 287.79125977 C-38.76790527 289.06211426 -38.76790527 289.06211426 -38.58691406 290.35864258 C-31.85011141 337.03628541 -9.38804533 379.94553916 23.0546875 413.79125977 C23.55726074 414.32106445 24.05983398 414.85086914 24.57763672 415.39672852 C32.49123238 423.70242817 40.85381035 430.9516242 50.0546875 437.79125977 C50.8912085 438.42692871 50.8912085 438.42692871 51.74462891 439.07543945 C98.51485011 474.58641569 159.22220816 488.5916688 217.17993164 482.02026367 C229.3852692 480.33396168 241.38634863 477.36388783 253.3359375 474.40795898 C256.22858364 473.75181457 259.12523449 473.25275632 262.0546875 472.79125977 C261.71211914 471.78450195 261.36955078 470.77774414 261.01660156 469.74047852 C259.72043434 465.92558749 258.43280895 462.10785511 257.14746094 458.28930664 C256.59502002 456.65182824 256.04040926 455.01507992 255.48339844 453.37915039 C251.81988044 442.61343324 248.60795863 431.87392575 246.0546875 420.79125977 C245.81508301 419.76516602 245.57547852 418.73907227 245.32861328 417.68188477 C241.93891391 402.83515364 239.5546118 387.94477331 238.0546875 372.79125977 C237.95824951 371.84887451 237.86181152 370.90648926 237.76245117 369.93554688 C236.90792984 360.47645987 236.86855805 351.02749833 236.86938477 341.53759766 C236.86721042 338.75806059 236.84902288 335.97892957 236.83007812 333.19946289 C236.7939627 321.65275339 237.4695056 310.35065582 238.81314087 298.88394165 C239.12984251 296.14014109 239.39403646 293.39193258 239.66015625 290.64282227 C243.48365398 254.94686045 253.41194921 218.94472002 275.0546875 189.79125977 C275.73660156 188.86700195 276.41851563 187.94274414 277.12109375 186.99047852 C299.34796405 158.521527 329.93281543 139.57250278 365.78125 134.23657227 C381.14850064 132.41560808 396.24865182 133.37602225 411.0546875 137.79125977 C412.10897949 138.09676758 412.10897949 138.09676758 413.18457031 138.40844727 C428.93996285 143.09385083 443.77140796 150.80550976 456.0546875 161.79125977 C456.869375 162.48735352 457.6840625 163.18344727 458.5234375 163.90063477 C474.53805759 177.83928558 486.48943823 194.41782325 495.0546875 213.79125977 C495.33683105 214.42467285 495.61897461 215.05808594 495.90966797 215.71069336 C517.45136073 265.22992935 506.19789065 328.9929806 487.37646484 377.55541992 C476.03453008 405.32158236 460.49958981 430.96320722 441.0546875 453.79125977 C440.17875456 454.85168775 439.30380445 455.91292811 438.4296875 456.97485352 C427.20629149 470.48489261 414.89648471 482.96837085 401.0546875 493.79125977 C398.89689225 495.56870476 396.75687062 497.36707696 394.6171875 499.16625977 C385.52770337 506.79125977 385.52770337 506.79125977 383.0546875 506.79125977 C386.0912483 511.8081863 389.81242921 515.96992999 393.76953125 520.28735352 C395.70001053 522.40263081 397.57262257 524.54950525 399.4296875 526.72875977 C406.44251351 534.74341806 414.00537002 542.00944883 422.34375 548.63110352 C424.07238809 550.00853416 425.77858977 551.41494755 427.453125 552.85766602 C461.14598269 581.71448262 504.50379299 600.52657218 547.7421875 609.04125977 C548.87817383 609.26797363 548.87817383 609.26797363 550.03710938 609.49926758 C566.48988344 612.53870833 582.9879489 613.16504797 599.6796875 613.10375977 C601.19073059 613.10152405 601.19073059 613.10152405 602.7322998 613.09924316 C618.0131824 613.05865569 632.99034044 612.59544558 648.0546875 609.79125977 C648.86067383 609.64140625 649.66666016 609.49155273 650.49707031 609.3371582 C655.00546417 608.46510337 659.46272476 607.45000872 663.9140625 606.32397461 C666.06927832 605.7876287 668.23139891 605.29692356 670.3984375 604.81079102 C707.74008267 596.10113209 743.48105452 576.96109722 773.0546875 552.79125977 C773.68004395 552.28159668 774.30540039 551.77193359 774.94970703 551.24682617 C789.56915258 539.21564075 803.56797801 525.87459063 815.0546875 510.79125977 C815.84746094 509.79223633 816.64023438 508.79321289 817.45703125 507.76391602 C829.07870036 493.06897108 838.42885876 477.41236512 847.0546875 460.79125977 C847.63114014 459.68161865 847.63114014 459.68161865 848.21923828 458.54956055 C858.1783843 439.09544651 864.96552298 417.99828122 870.0546875 396.79125977 C870.21662598 396.1196582 870.37856445 395.44805664 870.54541016 394.75610352 C886.00544326 328.26581524 872.27408546 253.82489687 837.0546875 195.79125977 C834.19499568 191.25556197 831.20143603 186.81436101 828.15917969 182.3996582 C826.55772963 180.06757311 824.99382175 177.71097617 823.4296875 175.35375977 C822.96304688 174.65379883 822.49640625 173.95383789 822.015625 173.23266602 C821.53996094 172.51916992 821.53996094 172.51916992 821.0546875 171.79125977 C825.56912317 166.81014192 830.8973334 163.25421763 836.4296875 159.47875977 C838.50532405 158.04924026 840.58084152 156.61954785 842.65625 155.18969727 C843.7174707 154.46105469 844.77869141 153.73241211 845.87207031 152.98168945 C849.90228441 150.20790295 853.91559371 147.4103267 857.92797852 144.61083984 C868.92514837 136.93811359 879.97234587 129.34035705 891.0546875 121.79125977 C895.20594473 123.64138263 897.0362349 126.22787833 899.4296875 129.97875977 C899.8532251 130.63021973 900.2767627 131.28167969 900.71313477 131.95288086 C902.17625574 134.22258413 903.61766693 136.50494492 905.0546875 138.79125977 C905.60012207 139.65605957 906.14555664 140.52085937 906.70751953 141.41186523 C920.87613335 163.98946118 932.32740164 187.01185344 942.0546875 211.79125977 C942.40515137 212.66508301 942.75561523 213.53890625 943.11669922 214.43920898 C947.76879094 226.13388179 950.81196501 238.21496165 953.8046875 250.41625977 C953.99582123 251.19155029 954.18695496 251.96684082 954.38388062 252.765625 C957.14217862 264.03577549 959.30169521 275.32354569 961.0546875 286.79125977 C961.30822998 288.38502441 961.30822998 288.38502441 961.56689453 290.01098633 C975.04736511 378.30430312 950.29490074 475.73951956 897.6015625 547.58032227 C894.97652948 551.07240581 892.2799492 554.50322239 889.54833984 557.91235352 C888.10429976 559.72885114 886.69394639 561.56642521 885.29296875 563.41625977 C875.35860004 576.47208313 863.89815476 588.02589248 852.3671875 599.66625977 C851.5127002 600.53387939 850.65821289 601.40149902 849.77783203 602.29541016 C843.85186429 608.22876122 837.61459955 613.57388576 831.0546875 618.79125977 C829.83521868 619.7927102 828.61747534 620.79626981 827.40234375 621.80297852 C790.31483628 652.1725809 747.02061831 674.38058098 701.0546875 687.79125977 C699.77058323 688.19019519 698.48673443 688.58995377 697.203125 688.99047852 C646.09977584 704.50575015 587.54625119 707.23460428 535.22998047 696.23901367 C532.69923625 695.71809505 530.16100263 695.24590906 527.62109375 694.77172852 C474.03241076 684.50451037 421.82874851 660.62778184 379.0546875 626.79125977 C378.04583496 625.99655273 378.04583496 625.99655273 377.01660156 625.18579102 C364.26898104 615.1026567 352.44122986 604.25656968 340.9067688 592.81756592 C339.89815092 591.81764492 338.88816933 590.81909719 337.87667847 589.82208252 C331.1342073 583.16470983 324.93137239 576.23605897 319.0546875 568.79125977 C317.91125972 567.37370231 316.76683017 565.95695192 315.62109375 564.54125977 C314.61917803 563.29175156 313.61785703 562.04176621 312.6171875 560.79125977 C312.10220703 560.1505957 311.58722656 559.50993164 311.05664062 558.84985352 C310.56228516 558.23239258 310.06792969 557.61493164 309.55859375 556.97875977 C308.90612671 556.1647168 308.90612671 556.1647168 308.24047852 555.33422852 C307.11344399 553.86771458 306.08063846 552.3301862 305.0546875 550.79125977 C301.52214246 551.36772822 298.33301095 552.38223905 294.99365234 553.65722656 C282.02245551 558.57640819 268.53566541 561.61964493 255.0546875 564.79125977 C254.31009277 564.97317871 253.56549805 565.15509766 252.79833984 565.3425293 C248.57886994 566.37104589 244.34774001 567.1522176 240.0546875 567.79125977 C239.1874707 567.92516113 238.32025391 568.0590625 237.42675781 568.19702148 C158.39554539 579.79470188 74.80237087 562.99947097 9.0546875 516.79125977 C7.92590192 516.0137408 6.79699016 515.23640499 5.66796875 514.45922852 C-2.62442924 508.69673409 -10.34217574 502.42989605 -17.9453125 495.79125977 C-18.68394531 495.15317383 -19.42257812 494.51508789 -20.18359375 493.85766602 C-22.11552774 492.18125836 -24.03269697 490.48966235 -25.9453125 488.79125977 C-26.73421875 488.09516602 -27.523125 487.39907227 -28.3359375 486.68188477 C-36.77145022 479.17790106 -44.55641409 471.31907497 -51.9453125 462.79125977 C-52.46778564 462.19676025 -52.99025879 461.60226074 -53.52856445 460.98974609 C-103.04495514 404.37813938 -129.1443502 330.00428064 -129.1953125 255.22875977 C-129.19598724 254.3310788 -129.19666199 253.43339783 -129.19735718 252.5085144 C-129.11094917 179.61649719 -103.99884475 101.91152488 -53.10546875 48.09204102 C-51.28906641 46.15739187 -49.55996174 44.18661202 -47.83203125 42.17407227 C-43.33672813 37.01869932 -38.52851449 32.19044891 -33.6953125 27.35375977 C-32.81746094 26.46366211 -31.93960938 25.57356445 -31.03515625 24.65649414 C-24.98618235 18.59423552 -18.63562517 13.12930398 -11.9453125 7.79125977 C-10.90002824 6.90903515 -9.85841581 6.02239328 -8.82421875 5.12719727 C-8.05980469 4.48008789 -7.29539062 3.83297852 -6.5078125 3.16625977 C-5.72535156 2.49336914 -4.94289063 1.82047852 -4.13671875 1.12719727 C-1.9453125 -0.20874023 -1.9453125 -0.20874023 0 0 Z " fill="#2D31FA" transform="translate(415.9453125,498.208740234375)"/>
<path d="M0 0 C1.01126953 0.60134766 1.01126953 0.60134766 2.04296875 1.21484375 C11.9804761 7.84625581 18.75106773 19.32934748 21.5625 30.77546692 C22.25927813 34.31833775 22.30450073 37.78936687 22.30078125 41.390625 C22.30651657 42.1686145 22.31225189 42.946604 22.31816101 43.74816895 C22.33032501 46.24900012 22.3242303 48.74917209 22.3125 51.25 C22.30968018 52.10613892 22.30686035 52.96227783 22.30395508 53.84436035 C22.06532988 101.90032392 3.36674617 145.36250257 -29.4921875 180.28125 C-31.26389168 182.20197603 -32.93686166 184.11400835 -34.5859375 186.1328125 C-36.55291505 188.4689962 -38.42619119 190.41863104 -40.75 192.375 C-41.42546875 192.95121094 -42.1009375 193.52742187 -42.796875 194.12109375 C-43.52390625 194.74113281 -44.2509375 195.36117187 -45 196 C-46.66994534 197.47546412 -48.33664845 198.9546064 -50 200.4375 C-50.763125 201.11683594 -51.52625 201.79617188 -52.3125 202.49609375 C-52.869375 202.99238281 -53.42625 203.48867188 -54 204 C-54.99 203.67 -55.98 203.34 -57 203 C-58.10948479 200.19676392 -58.9960989 197.51659359 -59.8125 194.625 C-60.06749268 193.74158936 -60.32248535 192.85817871 -60.58520508 191.94799805 C-75.07314892 140.45748201 -82.13483617 70.99807841 -55 22 C-47.64228407 10.40315966 -38.45436785 0.72266955 -25.125 -3.609375 C-16.26436736 -5.23816776 -7.7077705 -4.77432775 0 0 Z " fill="#FDFEFE" transform="translate(812,724)"/>
</svg>
