<?xml version="1.0" encoding="UTF-8"?>
<svg version="1.1" xmlns="http://www.w3.org/2000/svg" width="500" height="500">
<path d="M0 0 C2.96317363 2.67329795 5.16317194 5.84936142 7.5 9.0625 C9.37677747 11.4866709 11.384613 13.49450354 13.75 15.4375 C15 17 15 17 15 18.875 C13.90418291 21.20361131 12.50387956 22.64594929 10.65234375 24.40625 C4.31317223 30.5206282 -0.77021048 36.65018827 -4.7109375 44.5546875 C-6 47 -6 47 -7.62890625 49.1328125 C-9.47263646 51.64364737 -9.55497223 53.94838098 -10 57 C-10.350625 57.639375 -10.70125 58.27875 -11.0625 58.9375 C-12.42896406 61.94372094 -12.05835728 64.73199245 -12 68 C-12.16113281 68.64066406 -12.32226562 69.28132813 -12.48828125 69.94140625 C-13.78162401 75.14439584 -13.25540856 80.83887593 -12 86 C-11.855625 86.969375 -11.71125 87.93875 -11.5625 88.9375 C-11.07094547 92.0647289 -11.07094547 92.0647289 -9.875 95.1875 C-9 98 -9 98 -10 101 C-9.34 101 -8.68 101 -8 101 C-7.62875 101.99 -7.2575 102.98 -6.875 104 C-5.23377899 107.90087313 -2.88218796 110.94867645 -0.20703125 114.203125 C1 116 1 116 1 119 C1.53625 119.20625 2.0725 119.4125 2.625 119.625 C5.91978009 121.53250426 8.59363628 124.04819384 11 127 C11 127.66 11 128.32 11 129 C11.99 129 12.98 129 14 129 C14.99 129.99 14.99 129.99 16 131 C28.07665807 141.6274591 46.48296655 143.93809526 61.83886719 143.19042969 C66.11859775 142.81331832 70.0675751 141.69832232 74 140 C72.73937795 134.60140325 72.73937795 134.60140325 70.9375 129.375 C69.83296223 126.57683764 69.44950977 123.97800225 69 121 C68.66161259 119.48694466 68.32305368 117.97392767 67.984375 116.4609375 C66.89442755 111.03933748 66.70185805 105.82876556 66.75 100.3125 C66.73839844 98.96575195 66.73839844 98.96575195 66.7265625 97.59179688 C66.7419296 92.34777366 67.39570409 88.03587867 69 83 C69.19502905 81.29658173 69.34666306 79.58713866 69.4375 77.875 C69.7758062 73.81532561 70.61866234 71.37356168 73 68 C73.63292383 65.88719655 73.63292383 65.88719655 74 64 C74.495 63.01 74.495 63.01 75 62 C75.66 62 76.32 62 77 62 C76.67 61.01 76.34 60.02 76 59 C78.06087293 54.77473998 80.69217472 51.86672429 85 50 C85.4125 49.401875 85.825 48.80375 86.25 48.1875 C90.69899716 42.62625356 98.11049728 39.31861402 105 38 C117.99413646 36.94368378 117.99413646 36.94368378 124 41 C125.66014616 41.36442233 127.32706064 41.69972883 129 42 C131.3125 43.0625 131.3125 43.0625 133 44 C133 44.66 133 45.32 133 46 C134.32 46.66 135.64 47.32 137 48 C137 48.66 137 49.32 137 50 C137.5775 50.20625 138.155 50.4125 138.75 50.625 C142.6619726 53.01564992 144.608693 56.49998985 145.75 60.875 C145.8325 61.57625 145.915 62.2775 146 63 C146.66 63 147.32 63 148 63 C151.09932281 76.26991611 152.22454236 88.63109447 149 102 C148.6608208 103.66548682 148.32598803 105.33188109 148 107 C147.34 107 146.68 107 146 107 C146.20625 107.5775 146.4125 108.155 146.625 108.75 C147.08661261 111.51967567 146.42944945 112.64561267 145 115 C144.34 115 143.68 115 143 115 C142.87625 116.11375 142.7525 117.2275 142.625 118.375 C142 122 142 122 140 124 C139.525625 124.99 139.05125 125.98 138.5625 127 C137 130 137 130 134 132 C132.98133771 133.65532623 131.98189187 135.32260138 131 137 C130.02246356 138.02196992 129.0194119 139.01979625 128 140 C127.16381671 141.06025855 126.33073409 142.1229665 125.5 143.1875 C124.675 144.115625 123.85 145.04375 123 146 C122.01 146 121.02 146 120 146 C119.71125 146.598125 119.4225 147.19625 119.125 147.8125 C118 150 118 150 116 153 C116 153.99 116 154.98 116 156 C116.5878125 156.10699219 117.175625 156.21398437 117.78125 156.32421875 C120.28997136 157.08831874 121.55861968 158.06966994 123.5 159.8125 C124.10457031 160.35132813 124.70914063 160.89015625 125.33203125 161.4453125 C127.2689534 163.25068724 129.12785477 165.12785477 131 167 C132.31337396 168.0260734 133.64664105 169.02727325 135 170 C135.66 170.53625 136.32 171.0725 137 171.625 C139.07918725 173.05444123 140.56377474 173.46707572 143 174 C145.32091694 175.08309457 147.52194264 176.29655832 149.75 177.5625 C152.52264792 178.7888635 154.15024964 179.25537002 157.0625 179.5625 C161 180 161 180 163.42529297 181.00854492 C167.86847312 182.71950212 172.415794 182.32759361 177.125 182.3125 C178.10726562 182.32861328 179.08953125 182.34472656 180.1015625 182.36132812 C186.3021884 182.36540748 191.61655994 181.54751915 197.52294922 179.64526367 C200.11563938 178.96987632 202.33292 178.8869578 205 179 C205 178.34 205 177.68 205 177 C206.6396875 176.566875 206.6396875 176.566875 208.3125 176.125 C212.04013845 175.18106796 212.04013845 175.18106796 215 173 C215.66 173.33 216.32 173.66 217 174 C217 173.01 217 172.02 217 171 C223 168 223 168 225.25 166.9375 C227.18156409 166.01136225 227.18156409 166.01136225 229 164 C229.721875 163.29875 230.44375 162.5975 231.1875 161.875 C234.09660049 158.97455755 236.76756456 155.87929875 239.44921875 152.76953125 C240.58693322 151.47133312 241.7794033 150.2205967 243 149 C243.95791924 147.31538341 244.91371897 145.6294687 245.8515625 143.93359375 C247.01717883 141.97107646 248.31042697 140.1938508 249.6875 138.375 C251.7194105 135.60986186 252.60450685 133.46056506 253 130 C253.33 129.34 253.66 128.68 254 128 C254.66 128 255.32 128 256 128 C255.773125 127.484375 255.54625 126.96875 255.3125 126.4375 C254.92123041 123.38559723 256.00502067 121.71659706 257.30078125 119.0078125 C258.36097832 115.96344772 258.17239316 113.10534759 258.0078125 109.91796875 C258 108 258 108 259 106 C259.09534254 104.3146804 259.12985758 102.62550734 259.125 100.9375 C259.12886719 99.58978516 259.12886719 99.58978516 259.1328125 98.21484375 C259.24738223 96.02621107 259.24738223 96.02621107 258 95 C258.00595463 93.49943322 258.0556031 91.99897304 258.125 90.5 C258.18630693 85.14330675 256.99085393 80.92833939 255 76 C254.62875 75.05125 254.2575 74.1025 253.875 73.125 C253.441875 72.073125 253.441875 72.073125 253 71 C252.67 70.01 252.34 69.02 252 68 C252.33 67.34 252.66 66.68 253 66 C252.01 65.67 251.02 65.34 250 65 C249.29894157 63.34750513 248.64199649 61.67632417 248 60 C246.6470739 57.95845883 245.26021926 55.95167782 243.828125 53.96484375 C243 52 243 52 243.859375 49.75390625 C244.42398438 48.88572266 244.42398438 48.88572266 245 48 C245.66 48 246.32 48 247 48 C247.33 47.34 247.66 46.68 248 46 C252.86529659 41.76113644 258.08455227 37.61644803 264 35 C266.9375 35.75 266.9375 35.75 269 37 C269 37.66 269 38.32 269 39 C269.598125 39.598125 270.19625 40.19625 270.8125 40.8125 C274.73022512 44.73022512 276.30477638 48.80837767 278 54 C278.98357352 56.00812926 279.98308736 58.00854609 281 60 C284.375 67.875 284.375 67.875 283 72 C283.66 72 284.32 72 285 72 C286.6055501 78.31516372 287.36708164 84.37330631 287.7734375 90.875 C287.96089551 93.46062779 288.28335256 95.94353248 288.6875 98.5 C289.29089913 103.45518676 288.331438 108.10337712 287.46875 112.984375 C286.89258693 116.12967904 286.89258693 116.12967904 287.0625 119.875 C286.98397905 123.80104751 285.59183091 126.43429877 284 130 C283.64456573 132.33006911 283.3086247 134.66327016 283 137 C282.02919824 139.35766142 280.81580922 141.28733762 279.4375 143.4375 C277.98108433 146.03371923 277.54741927 148.10649814 277 151 C276.34 151.66 275.68 152.32 275 153 C274.71125 153.7425 274.4225 154.485 274.125 155.25 C272.79500868 158.50108988 271.01595568 161.1287904 269 164 C268.46375 164.78375 267.9275 165.5675 267.375 166.375 C266.694375 167.179375 266.694375 167.179375 266 168 C265.34 168 264.68 168 264 168 C263.87625 168.61875 263.7525 169.2375 263.625 169.875 C263 172 263 172 261 174 C260.34 174.33 259.68 174.66 259 175 C258.690625 175.61875 258.38125 176.2375 258.0625 176.875 C256.9574531 179.08509381 255.89108398 180.42409668 254 182 C253.34 182 252.68 182 252 182 C251.67 182.66 251.34 183.32 251 184 C236.46627566 198 236.46627566 198 229 198 C228.525625 198.474375 228.05125 198.94875 227.5625 199.4375 C225.70446822 201.29553178 224.53180893 201.46294962 222 202 C220.00092435 202.93706671 218.09197865 203.94608148 216.1875 205.0625 C214 206 214 206 210.6875 206.4375 C206.94383941 206.83764275 206.94383941 206.83764275 203.5625 208.5625 C200.18070503 209.92708394 197.90889002 210.24674 194.28515625 210.0078125 C191.54931175 209.99845919 188.91281525 210.40466682 186.20532227 210.76416016 C182.45120605 211.16562991 178.70928625 211.14419484 174.9375 211.125 C174.17373047 211.12886719 173.40996094 211.13273438 172.62304688 211.13671875 C167.99023707 211.12879264 163.58325907 210.75817594 159 210 C157.948125 209.855625 156.89625 209.71125 155.8125 209.5625 C153 209 153 209 151.0625 208 C148.84796327 206.79694963 148.84796327 206.79694963 145.5 206.5 C142.35392203 206.05056029 140.69082138 205.52479878 138 204 C135.51369712 202.9799783 133.01627969 202.00610488 130.5 201.0625 C127.81917986 199.92315144 125.4688729 198.54304556 123 197 C120.63121011 195.55561592 118.30841473 194.14980144 115.8125 192.9375 C113.40995561 191.69480463 112.20731156 190.41462311 111 188 C110.38125 187.690625 109.7625 187.38125 109.125 187.0625 C106.88787705 185.94393853 105.74159476 184.77154847 104 183 C102.22114704 181.51432102 100.42517897 180.05256368 98.62109375 178.59765625 C96.8456469 176.84787851 96.0869625 175.22568512 95 173 C92.93138176 170.57114745 90.74924698 168.62835724 88 167 C83.84370139 166.92578038 81.28389618 167.87326063 77.5 169.5625 C73.63493189 171.14993869 71.14011614 171.14526723 67 171 C65.845 171.165 64.69 171.33 63.5 171.5 C48.53307349 173.5502639 30.62162388 172.03051555 17 165 C16.01 164.690625 15.02 164.38125 14 164.0625 C11.08945835 163.03168317 9.4086846 161.86478808 7 160 C6.2575 159.731875 5.515 159.46375 4.75 159.1875 C-1.26303434 156.59096244 -5.97773281 152.07282387 -10.5 147.4375 C-12.7463376 145.00008339 -12.7463376 145.00008339 -15 144 C-15 143.34 -15 142.68 -15 142 C-15.639375 141.731875 -16.27875 141.46375 -16.9375 141.1875 C-19 140 -19 140 -20 137 C-20.825 136.175 -21.65 135.35 -22.5 134.5 C-25 132 -25 132 -26 129 C-26.474375 128.525625 -26.94875 128.05125 -27.4375 127.5625 C-29.18624119 125.81375881 -29.95022572 124.23077034 -31 122 C-31.7425 120.824375 -31.7425 120.824375 -32.5 119.625 C-34.11059332 116.80646169 -35.03333888 114.09331558 -36 111 C-36.4640625 109.8553125 -36.4640625 109.8553125 -36.9375 108.6875 C-39.50297703 102.19835221 -41.12609008 97.06104433 -41 90 C-41.30085509 88.55535348 -41.63680256 87.11774648 -42 85.6875 C-43.83059929 77.97283157 -43.17280743 70.98094104 -41.43359375 63.31640625 C-40.87844604 60.77830283 -40.87844604 60.77830283 -41.0625 57.25 C-40.98857298 53.4057949 -39.7881593 51.36173948 -38 48 C-37.855625 47.05125 -37.71125 46.1025 -37.5625 45.125 C-36.80978901 40.94327228 -34.97576037 37.72760123 -33 34 C-32.16479251 32.29258216 -31.33151258 30.5842203 -30.5 28.875 C-28.56956448 25.02600856 -26.61489625 21.42641577 -24 18 C-23.34 18 -22.68 18 -22 18 C-21.9071875 17.1646875 -21.9071875 17.1646875 -21.8125 16.3125 C-20.6523629 13.01057134 -18.54440205 11.37092009 -16 9 C-15.154375 8.154375 -14.30875 7.30875 -13.4375 6.4375 C-12.633125 5.633125 -11.82875 4.82875 -11 4 C-10.29875 3.2575 -9.5975 2.515 -8.875 1.75 C-5.90353288 -1.02336932 -3.70421169 -1.38907939 0 0 Z M106 68 C102.15740676 72.03003681 98.08675793 76.61644078 97.9375 82.4375 C97.958125 83.283125 97.97875 84.12875 98 85 C97.67515625 86.01964844 97.3503125 87.03929687 97.015625 88.08984375 C95.72289054 92.44692194 95.74137451 96.61040285 95.8125 101.125 C95.81314453 101.91003906 95.81378906 102.69507813 95.81445312 103.50390625 C95.84458143 107.47414695 96.083918 111.11888923 97 115 C97.12375 116.175625 97.2475 117.35125 97.375 118.5625 C97.99652955 121.9809125 98.68745147 123.48636029 101 126 C105.84188382 124.38603873 107.58680863 121.38762067 110 117 C110.33 116.01 110.66 115.02 111 114 C111.99 113.505 111.99 113.505 113 113 C116.76405565 108.25748957 119.41693682 104.12216337 120 98 C120.66 97.01 121.32 96.02 122 95 C122.48179241 91.55796754 122.41638528 88.09719883 122.4375 84.625 C122.47037109 83.67882812 122.50324219 82.73265625 122.53710938 81.7578125 C122.58405193 75.91822851 122.58405193 75.91822851 119.66015625 70.9609375 C115.07900164 67.58393366 111.5730714 65.63566668 106 68 Z " fill="#2A2EF9" transform="translate(127,150)"/>
<path d="M0 0 C0.66 0 1.32 0 2 0 C1.67 0.99 1.34 1.98 1 3 C0.34 2.34 -0.32 1.68 -1 1 C-0.67 0.67 -0.34 0.34 0 0 Z M-3 3 C-2.01 3.33 -1.02 3.66 0 4 C-1.11878383 5.17262904 -2.24523051 6.33795138 -3.375 7.5 C-4.00148438 8.1496875 -4.62796875 8.799375 -5.2734375 9.46875 C-7 11 -7 11 -9 11 C-9.66 12.32 -10.32 13.64 -11 15 C-11.33 14.01 -11.66 13.02 -12 12 C-9.54556584 8.31834876 -6.68165124 5.45443416 -3 3 Z M-14 14 C-13.34 14.66 -12.68 15.32 -12 16 C-12.99 16.33 -13.98 16.66 -15 17 C-14.67 16.01 -14.34 15.02 -14 14 Z " fill="#161AF6" transform="translate(120,150)"/>
<path d="M0 0 C1.65 0 3.3 0 5 0 C5 0.33 5 0.66 5 1 C3.35 1 1.7 1 0 1 C0 0.67 0 0.34 0 0 Z " fill="#0000FF" transform="translate(185,292)"/>
<path d="M0 0 C1.65 0 3.3 0 5 0 C5 0.33 5 0.66 5 1 C3.35 1 1.7 1 0 1 C0 0.67 0 0.34 0 0 Z " fill="#0000FF" transform="translate(172,292)"/>
<path d="M0 0 C4 1 4 1 4 1 Z " fill="#0000FF" transform="translate(311,331)"/>
<path d="M0 0 C4 1 4 1 4 1 Z " fill="#0000FF" transform="translate(294,331)"/>
<path d="M0 0 C3 1 3 1 3 1 Z " fill="#0000FF" transform="translate(320,360)"/>
<path d="M0 0 C3 1 3 1 3 1 Z " fill="#0000FF" transform="translate(287,360)"/>
<path d="M0 0 C3 1 3 1 3 1 Z " fill="#0000FF" transform="translate(194,321)"/>
<path d="M0 0 C3 1 3 1 3 1 Z " fill="#0000FF" transform="translate(165,321)"/>
<path d="" fill="#0000FF" transform="translate(0,0)"/>
<path d="M0 0 C2 1 2 1 2 1 Z " fill="#0000FF" transform="translate(334,357)"/>
<path d="M0 0 C2 1 2 1 2 1 Z " fill="#0000FF" transform="translate(318,330)"/>
<path d="M0 0 C2 1 2 1 2 1 Z " fill="#0000FF" transform="translate(290,330)"/>
<path d="M0 0 C2 1 2 1 2 1 Z " fill="#0000FF" transform="translate(280,328)"/>
<path d="M0 0 C2 1 2 1 2 1 Z " fill="#0000FF" transform="translate(208,318)"/>
<path d="M0 0 C2 1 2 1 2 1 Z " fill="#0000FF" transform="translate(152,318)"/>
<path d="M0 0 C2 1 2 1 2 1 Z " fill="#0000FF" transform="translate(159,289)"/>
<path d="" fill="#0000FF" transform="translate(0,0)"/>
<path d="" fill="#0000FF" transform="translate(0,0)"/>
<path d="" fill="#0000FF" transform="translate(0,0)"/>
<path d="" fill="#0000FF" transform="translate(0,0)"/>
<path d="" fill="#0000FF" transform="translate(0,0)"/>
<path d="" fill="#0000FF" transform="translate(0,0)"/>
<path d="" fill="#0000FF" transform="translate(0,0)"/>
<path d="" fill="#0000FF" transform="translate(0,0)"/>
<path d="" fill="#0000FF" transform="translate(0,0)"/>
<path d="" fill="#0000FF" transform="translate(0,0)"/>
<path d="" fill="#0000FF" transform="translate(0,0)"/>
<path d="" fill="#0000FF" transform="translate(0,0)"/>
<path d="" fill="#0000FF" transform="translate(0,0)"/>
<path d="" fill="#0000FF" transform="translate(0,0)"/>
<path d="" fill="#0000FF" transform="translate(0,0)"/>
<path d="" fill="#0000FF" transform="translate(0,0)"/>
<path d="" fill="#0000FF" transform="translate(0,0)"/>
<path d="" fill="#0000FF" transform="translate(0,0)"/>
<path d="" fill="#0000FF" transform="translate(0,0)"/>
<path d="" fill="#0000FF" transform="translate(0,0)"/>
<path d="" fill="#0000FF" transform="translate(0,0)"/>
<path d="" fill="#0000FF" transform="translate(0,0)"/>
<path d="" fill="#0000FF" transform="translate(0,0)"/>
<path d="" fill="#0000FF" transform="translate(0,0)"/>
<path d="" fill="#0000FF" transform="translate(0,0)"/>
<path d="" fill="#0000FF" transform="translate(0,0)"/>
<path d="" fill="#0000FF" transform="translate(0,0)"/>
<path d="" fill="#0000FF" transform="translate(0,0)"/>
<path d="" fill="#0000FF" transform="translate(0,0)"/>
<path d="" fill="#0000FF" transform="translate(0,0)"/>
<path d="" fill="#0000FF" transform="translate(0,0)"/>
<path d="" fill="#0000FF" transform="translate(0,0)"/>
<path d="" fill="#0000FF" transform="translate(0,0)"/>
<path d="" fill="#0000FF" transform="translate(0,0)"/>
<path d="" fill="#0000FF" transform="translate(0,0)"/>
<path d="" fill="#0000FF" transform="translate(0,0)"/>
<path d="" fill="#0000FF" transform="translate(0,0)"/>
<path d="" fill="#0000FF" transform="translate(0,0)"/>
<path d="" fill="#0000FF" transform="translate(0,0)"/>
<path d="" fill="#0000FF" transform="translate(0,0)"/>
<path d="" fill="#0000FF" transform="translate(0,0)"/>
<path d="" fill="#0000FF" transform="translate(0,0)"/>
<path d="" fill="#0000FF" transform="translate(0,0)"/>
<path d="" fill="#0000FF" transform="translate(0,0)"/>
<path d="" fill="#0000FF" transform="translate(0,0)"/>
<path d="" fill="#0000FF" transform="translate(0,0)"/>
<path d="" fill="#0000FF" transform="translate(0,0)"/>
<path d="" fill="#0000FF" transform="translate(0,0)"/>
<path d="" fill="#0000FF" transform="translate(0,0)"/>
<path d="" fill="#0000FF" transform="translate(0,0)"/>
<path d="" fill="#0000FF" transform="translate(0,0)"/>
<path d="" fill="#0000FF" transform="translate(0,0)"/>
<path d="" fill="#0000FF" transform="translate(0,0)"/>
<path d="" fill="#0000FF" transform="translate(0,0)"/>
<path d="" fill="#0000FF" transform="translate(0,0)"/>
<path d="" fill="#0000FF" transform="translate(0,0)"/>
<path d="" fill="#0000FF" transform="translate(0,0)"/>
<path d="" fill="#0000FF" transform="translate(0,0)"/>
<path d="" fill="#0000FF" transform="translate(0,0)"/>
<path d="" fill="#0000FF" transform="translate(0,0)"/>
<path d="" fill="#0000FF" transform="translate(0,0)"/>
<path d="" fill="#0000FF" transform="translate(0,0)"/>
<path d="" fill="#0000FF" transform="translate(0,0)"/>
<path d="" fill="#0000FF" transform="translate(0,0)"/>
<path d="" fill="#0000FF" transform="translate(0,0)"/>
</svg>
